<?xml version="1.0" encoding="UTF-8" standalone="no"?>
<!-- Generator: Adobe Illustrator 24.3.0, SVG Export Plug-In . SVG Version: 6.00 Build 0)  -->

<svg
   version="1.1"
   id="Layer_1"
   x="0px"
   y="0px"
   viewBox="0 0 559.37005 396.8504"
   xml:space="preserve"
   sodipodi:docname="skin-hair_follicle.svg"
   inkscape:version="1.1 (c68e22c387, 2021-05-23)"
   width="148mm"
   height="105mm"
   xmlns:inkscape="http://www.inkscape.org/namespaces/inkscape"
   xmlns:sodipodi="http://sodipodi.sourceforge.net/DTD/sodipodi-0.dtd"
   xmlns="http://www.w3.org/2000/svg"
   xmlns:svg="http://www.w3.org/2000/svg"><defs
   id="defs343" /><sodipodi:namedview
   id="namedview341"
   pagecolor="#ffffff"
   bordercolor="#666666"
   borderopacity="1.0"
   inkscape:pageshadow="2"
   inkscape:pageopacity="0.0"
   inkscape:pagecheckerboard="0"
   showgrid="false"
   inkscape:zoom="0.84957381"
   inkscape:cx="136.53905"
   inkscape:cy="248.35982"
   inkscape:window-width="1366"
   inkscape:window-height="706"
   inkscape:window-x="-8"
   inkscape:window-y="-8"
   inkscape:window-maximized="1"
   inkscape:current-layer="Layer_1"
   units="mm"
   inkscape:document-units="mm" />
<style
   type="text/css"
   id="style2">
	.st0{fill:#F0DDB6;}
	.st1{fill:#723D20;}
	.st2{fill:#D95E4A;}
	.st3{fill:#E790A2;}
	.st4{fill:#FBAA5D;}
	.st5{fill:#F2CE59;}
	.st6{fill:#6F5993;}
	.st7{fill:#BC6461;}
	.st8{fill:#E1EDFE;}
	.st9{fill:#7AB481;}
	.st10{fill:#73CDB4;}
	.st11{fill:#76C2AF;}
</style>


















































































































































<path
   class="st0"
   d="m 201.44544,138.52675 c 5.06492,0.49016 9.88477,2.85923 15.11308,2.53246 -6.69877,20.25969 -11.02847,41.17292 -13.07077,62.33123 -0.98031,11.35523 -2.61416,22.62876 -4.32969,33.9023 -2.04231,13.07077 -6.61708,25.65138 -8.16923,38.80384 -0.98031,8.08754 0.32677,15.76661 4.49307,22.71046 5.14662,8.496 13.96939,9.558 21.48508,3.10431 3.02261,-2.61416 5.14661,-6.04523 6.12692,-9.88477 1.38877,-5.55508 1.55215,-11.35523 0.40846,-16.992 -3.67615,-19.0343 -7.434,-38.06861 -7.84246,-57.59307 -0.49015,-25.65138 2.20569,-50.8943 9.31292,-75.64707 4.41139,-0.73523 8.82277,-1.79723 13.07077,-3.186 -2.124,6.61708 -4.248,13.31585 -6.20862,20.01462 -0.81692,2.69584 -1.47046,5.47338 -0.57184,8.33261 0.32677,1.38877 1.38877,2.36908 2.77754,2.61415 1.71554,0.24508 2.85923,-0.49015 3.1043,-2.36907 v 0 c 3.59447,-3.75785 4.49308,-8.98615 7.35231,-13.07077 v 0 c 0.49015,0 0.81692,-0.32677 0.81692,-0.81692 v 0 c 0.49016,-0.16339 0.98031,-0.32677 1.47047,-0.65354 9.72138,-6.53539 17.9723,-6.20862 27.12184,1.062 l 1.14369,1.14369 c 2.53246,3.43108 4.98323,7.02554 4.08462,11.51861 -0.57185,2.94093 0,4.41139 2.85923,4.81985 1.71553,0.32677 3.02261,1.79723 4.90153,1.63385 v 0 c -0.0817,0.65353 0.0817,1.062 0.81693,0.81692 v 0 c 3.26769,11.02846 1.38877,14.54123 -9.63969,18.38077 -1.22539,0.40846 -2.69585,0.57184 -3.34939,1.96061 v 0 c -2.85923,2.53246 -1.55215,5.71846 -1.14369,8.65939 0.73523,5.2283 0.0817,9.88476 -4.00292,13.7243 -0.65354,0.57185 -1.71554,0.98031 -1.47046,2.20569 v 0 c -0.89862,-0.32677 -1.55216,0.16339 -2.28739,0.49016 -4.98323,2.36907 -9.80307,3.02261 -13.806,-1.96062 -0.81692,-1.062 -2.20569,-1.63384 -3.59446,-1.47046 -4.248,1.14369 -8.16923,0 -12.09046,-1.14369 v 0 c -1.062,-4.16631 -2.124,-8.25092 -1.71554,-12.66231 0.24508,-1.55215 -0.65354,-3.02261 -2.20569,-3.51277 -1.47046,-0.40846 -2.53246,0.81693 -3.34938,1.87893 -2.124,2.85923 -3.34939,6.2903 -3.43108,9.80307 -0.32677,7.434 1.47046,14.45954 3.92123,21.40338 -0.89861,0.0817 -1.79723,0.0817 -2.20569,1.062 -3.67615,-0.73523 -4.73815,1.22539 -4.00292,4.3297 0.49015,1.96061 0.32677,4.00292 0.81692,5.96353 0.81692,3.59446 0,7.59739 2.45077,10.78339 -1.47046,2.124 -0.0817,3.83953 0.65354,5.71846 0.16338,2.85923 -0.0817,5.88184 2.28738,8.08754 -1.14369,2.0423 -0.73523,3.92123 0.40846,5.71846 -0.57184,2.85923 0.49016,5.47338 0.89862,8.16923 -0.0817,1.63384 -0.16339,3.26769 -0.16339,4.90153 -0.57184,2.69585 -1.22538,5.31 -1.062,8.08754 -0.9803,0.40846 -1.55215,1.38877 -1.47046,2.45077 -1.22538,1.062 -1.30708,2.77754 -2.20569,4.08462 -4.08462,5.96353 -10.37492,10.12984 -17.48215,11.43692 -0.24508,0 -0.40846,0 -0.65354,0.0817 -2.69585,-0.65354 -5.55508,-0.49015 -8.16923,-1.71554 -2.85923,-1.30708 -5.14662,-3.51277 -7.434,-5.63677 -2.124,-1.79723 -2.04231,-5.2283 -4.73815,-6.61707 0.24507,-1.38877 -0.0817,-2.85923 -0.89862,-4.08462 -1.38877,-2.85923 -0.40846,-6.372 -2.61415,-8.98615 1.22538,-1.22539 0.57184,-2.53246 0.49015,-4.00292 -0.0817,-3.51277 0.40846,-6.94385 0.65354,-10.45662 0.89862,-0.73523 0.73523,-1.71554 0.65354,-2.61415 v -1.63385 c 1.38877,-2.77754 0.81692,-6.04523 1.96061,-8.90446 l 0.57185,-1.71554 c 1.71554,-6.61707 3.34938,-13.31584 5.22831,-19.93292 1.22538,-4.49307 0.49015,-5.39169 -4.32969,-5.06492 l -1.55216,-0.40846 c 0.89862,-3.10431 2.04231,-6.04523 2.45077,-9.31292 1.38877,-10.70169 2.85923,-21.40339 4.49308,-32.02338 2.45077,-16.66523 7.434,-33.24877 6.86215,-50.64923 z"
   id="path4"
   style="stroke-width:0.816923" /><path
   class="st1"
   d="m 223.58405,141.87614 c -7.18892,24.75276 -9.88477,49.91399 -9.31292,75.64706 0.40846,19.52446 4.16631,38.55877 7.84246,57.59307 1.14369,5.63677 1.062,11.43693 -0.40846,16.992 -0.98031,3.83954 -3.10431,7.27062 -6.12692,9.88477 -7.59739,6.45369 -16.33846,5.31 -21.48508,-3.10431 -4.248,-6.94384 -5.47338,-14.62292 -4.49307,-22.71046 1.55215,-13.15246 6.12692,-25.73307 8.16923,-38.80384 1.71553,-11.27354 3.34938,-22.54707 4.41138,-33.9023 2.04231,-21.24 6.372,-42.15323 13.07077,-62.33123 12.6623,-36.43476 32.35015,-68.948295 55.87753,-99.092753 6.69877,-8.577691 13.64261,-16.991998 21.97523,-24.099228 1.38877,-1.388769 3.10431,-2.369076 4.98323,-2.85923 -0.81692,2.287384 -2.20569,4.247999 -4.00292,5.881845 -33.00369,33.575535 -57.2663,74.830145 -70.50046,120.087676 -0.0817,0.24508 -0.0817,0.49016 0,0.81693 z"
   id="path6"
   style="stroke-width:0.816923" /><path
   class="st2"
   d="m 307.56374,176.10521 2.36907,-2.36908 c 0.73523,-0.0817 1.55216,0 1.30708,-1.14369 l 0.0817,-0.0817 c 0.65354,0.16338 0.89862,-0.0817 0.65354,-0.73523 l 0.16338,-0.0817 c 0.65354,0.16339 0.89862,-0.0817 0.73523,-0.73523 l 0.0817,-0.0817 c 0.65354,0.16339 0.89861,-0.0817 0.73523,-0.73523 l 0.0817,-0.0817 c 0.65354,0.16338 0.89862,-0.0817 0.73523,-0.73523 l 0.0817,-0.0817 c 0.65354,0.16338 0.89862,-0.0817 0.81693,-0.73524 v 0.24508 -0.24508 c 0.57184,0.0817 0.89861,-0.24507 0.81692,-0.81692 l 0.0817,0.24508 -0.0817,-0.24508 c 0.57184,0.0817 0.89861,-0.24508 0.89861,-0.81692 v 0.0817 c 0.40847,0 0.81693,-0.24508 0.81693,-0.65354 0,-0.0817 0,-0.16338 0,-0.16338 v 0.0817 c 0.40846,0.0817 0.81692,-0.24508 0.89861,-0.73523 v -0.0817 h -0.0817 c 1.30708,0.24507 1.79723,-0.32677 1.71554,-1.63385 v 0.0817 l 0.89861,-0.89861 -0.0817,0.0817 0.89862,-0.89861 -0.0817,0.0817 0.89862,-0.98031 0.65354,-0.65354 c 0.73523,0 1.55215,0 1.47046,-1.14369 h 0.0817 c 0.65354,0.16338 0.89862,-0.16339 0.81692,-0.73523 v 0 c 0.40847,0.0817 0.81693,-0.16339 0.89862,-0.57185 0,-0.0817 0,-0.16338 0,-0.24507 v 0.0817 c 0.40846,0.0817 0.81692,-0.24508 0.89862,-0.73523 v -0.0817 h -0.0817 c 1.79723,0.24507 2.53246,-0.65354 2.61416,-2.36908 v 0 c 0.73523,0 1.47046,-0.0817 1.55215,-1.062 h -0.0817 c 1.38877,0.24508 2.45077,0.0817 2.20569,-1.71554 h 0.24508 c 0.57184,0.16339 0.89861,-0.16338 1.14369,-0.65354 2.124,-1.14369 3.186,-3.75784 5.55508,-4.65646 1.30707,0.98031 1.47046,2.45077 1.79723,3.92123 0.9803,3.83954 0.65353,8.00585 2.45076,11.682 -0.0817,0.24508 -0.16338,0.49015 -0.24507,0.81692 -4.08462,6.12693 -7.67908,12.49892 -9.63969,19.68785 v -0.0817 c -0.49016,0.16339 -0.73523,0.49016 -0.49016,0.98031 l -0.0817,0.16339 c -3.10431,0.9803 -3.26769,3.67615 -3.59446,6.20861 v 0 c -2.77754,0.98031 -3.186,3.26769 -3.34938,5.71846 v 0 c -2.04231,0.32677 -2.53247,1.63385 -2.124,3.51277 h -0.0817 c -2.28738,0.49015 -2.61415,2.124 -2.45077,4.00292 h -0.24507 0.24507 c -1.55215,0.16339 -2.0423,1.062 -1.55215,2.45077 h -0.0817 c -1.55216,0.16339 -2.04231,0.98031 -1.55216,2.45077 h -0.0817 c -1.63384,0.0817 -2.04231,0.98031 -1.55215,2.45077 h -0.0817 c -1.63385,0.0817 -2.04231,0.98031 -1.63385,2.45077 v 0 c -2.20569,0.40846 -2.85923,1.87892 -2.69585,3.92123 v 0 c -1.79723,-0.0817 -1.79723,1.14369 -1.71553,2.45077 v 0 c -2.2057,0.0817 -2.61416,1.47046 -2.45077,3.34938 v 0 c -2.53246,0.24508 -3.51277,1.71554 -3.26769,4.16631 v 0 c -3.75785,1.63385 -6.53539,4.98323 -7.434,8.98615 l -0.65354,0.73523 -0.89862,0.89862 h 0.0817 c -4.00292,1.71554 -7.27061,4.98323 -8.98615,8.98615 v -0.0817 l -0.89861,0.81692 0.0817,-0.0817 -0.89862,0.81692 h 0.0817 c -4.00293,0.57185 -6.29031,3.34939 -8.16923,6.53539 v 0 c -1.47047,0 -2.94093,-0.16339 -3.10431,1.87892 h -0.0817 c -0.81693,-0.24508 -1.55216,-0.32677 -1.47046,0.89861 l -0.0817,0.0817 c -2.0423,-0.40846 -3.51277,0.24507 -4.1663,2.28738 v 0 c -0.81693,-0.16338 -1.47047,-0.16338 -1.55216,0.89862 h -0.0817 c -0.81692,-0.24508 -1.55215,-0.32677 -1.55215,0.81692 h -0.0817 c -0.81692,-0.32677 -1.47046,-0.40846 -1.47046,0.81692 h -0.16338 c -0.81693,-0.32677 -1.47046,-0.40846 -1.47046,0.81693 h -0.16339 c -0.81692,-0.32677 -1.47046,-0.40847 -1.47046,0.81692 h -0.16338 c -0.81693,-0.32677 -1.47047,-0.40846 -1.47047,0.81692 h -0.16338 c -0.81692,-0.32677 -1.47046,-0.32677 -1.63385,0.73523 v -0.0817 c -0.9803,-0.16338 -2.0423,-0.65354 -2.36907,0.89862 h -0.0817 c -5.06493,-0.65354 -7.35231,-2.53247 -8.65939,-7.10723 v 0 c 0.57185,0 0.89862,-0.24508 0.65354,-0.81693 l 0.0817,-0.16338 c 0.65354,0.16338 0.89862,-0.0817 0.65354,-0.73523 l 0.16339,-0.24508 c 1.87892,0.24508 2.0423,-0.73523 1.63384,-2.20569 h 0.0817 c 1.63385,-0.0817 2.04231,-0.89862 1.63385,-2.36908 h 0.0817 c 1.63385,-0.0817 2.04231,-0.98031 1.55216,-2.45077 l 0.0817,0.24508 -0.0817,-0.24508 c 1.63384,-0.16338 2.124,-0.9803 1.55215,-2.45077 l 0.0817,-0.0817 c 1.63385,-0.0817 2.124,-0.89861 1.47046,-2.36908 l 0.0817,-0.0817 c 1.22538,0.0817 1.14369,-0.65354 0.9803,-1.47046 l 0.0817,0.24508 0.0817,-0.16339 c 1.55215,-0.24507 2.0423,-1.062 1.55215,-2.53246 l 0.0817,0.24508 -0.0817,-0.24508 c 1.55215,-0.16338 2.124,-0.98031 1.47046,-2.45077 l 0.0817,-0.0817 c 2.36908,-0.40846 2.61416,-2.04231 2.53247,-4.00292 l 0.32676,0.0817 -0.32676,-0.0817 c 1.55215,-0.16339 2.0423,-0.98031 1.55215,-2.45077 h 0.0817 c 1.63385,-0.0817 2.124,-0.89862 1.47046,-2.36908 l 0.0817,-0.16338 c 1.22538,0.0817 1.14369,-0.65354 0.9803,-1.47046 l 0.16339,0.24507 -0.16339,-0.24507 c 1.47046,-0.24508 2.04231,-1.062 1.63385,-2.53246 h 0.24508 -0.24508 c 1.55215,-0.16339 2.04231,-0.98031 1.55215,-2.45077 l 0.16339,0.16338 -0.0817,-0.16338 c 1.63385,-0.16339 2.2057,-0.89862 1.47047,-2.45077 l 0.16338,-0.16339 c 1.79723,0.0817 2.20569,-0.73523 1.47046,-2.28738 l 0.16339,-0.24508 c 1.87892,0.16339 2.20569,-0.73523 1.47046,-2.20569 l 0.16338,-0.24508 c 1.87893,0.16339 2.124,-0.65354 1.47046,-2.20569 l 0.16339,-0.24508 c 1.87892,0.16339 2.124,-0.73523 1.47046,-2.20569 l 0.16338,-0.24507 c 1.79724,0.16338 2.124,-0.73524 1.55216,-2.28739 l 0.0817,-0.0817 c 1.71554,0.0817 2.04231,-0.89862 1.63385,-2.36908 l 0.0817,0.24508 v -0.24508 c 1.71554,-0.40846 3.02261,-1.14369 2.28738,-3.26769 l 0.16339,-0.16338 c 1.14369,0.16338 1.062,-0.65354 1.062,-1.38877 l -0.0817,0.0817 c 0.73523,-0.0817 0.9803,-0.65354 0.9803,-1.30708 0.98031,-0.57184 1.63385,-1.55215 1.79723,-2.69584 0.65354,-0.16339 1.30708,-0.24508 0.89862,-1.1437 l 0.16338,-0.16338 c 1.22539,0.24508 1.062,-0.57185 1.062,-1.30708 v 0.0817 l 0.81693,-0.9803 -0.0817,0.0817 c 0.57185,-0.0817 0.81693,-0.32677 0.73523,-0.89862 v -0.0817 c 0.65354,0.0817 0.89862,-0.0817 0.65354,-0.73523 0,-0.0817 0.0817,-0.16338 0.0817,-0.24508 1.22538,0.32677 1.062,-0.57184 1.062,-1.30707 v 0.0817 c 0.49015,-0.0817 0.81692,-0.49015 0.81692,-0.89862 l -0.0817,0.0817 c 0.57184,-0.0817 0.81692,-0.32677 0.73523,-0.89862 h 0.24507 l -0.24507,-0.0817 c 0.57184,0.0817 0.89861,-0.16339 0.73523,-0.81692 l 0.0817,-0.0817 c 1.062,0.16339 1.14369,-0.57184 1.14369,-1.30707 v 0.0817 l 0.81692,-0.89862 -0.0817,0.0817 c 0.32677,-0.32677 0.57185,-0.57185 0.81693,-0.89862 l -0.0817,0.0817 0.81693,-0.89861 -0.0817,0.0817 c 0.49016,0 0.81693,-0.40846 0.81693,-0.89861 l -0.16339,-0.0817 c 0.40846,0 0.81693,-0.24507 0.81693,-0.73523 0,-0.0817 0,-0.16338 0,-0.24507 l 0.16338,0.24507 -0.24508,-0.24507 c 0.57185,0 0.89862,-0.24508 0.81693,-0.81693 l 0.24507,0.24508 -0.24507,-0.16339 c 0.57184,0 0.89861,-0.24507 0.73523,-0.81692 l 0.24507,0.16339 -0.24507,-0.24508 c 0.65353,0.0817 0.89861,-0.16339 0.73523,-0.81692 l 0.0817,-0.0817 c 0.65354,0.0817 0.89861,-0.16338 0.73523,-0.73523 l 0.0817,-0.0817 c 0.65354,0.16339 0.89862,-0.0817 0.73523,-0.73523 l 0.0817,-0.0817 c 0.65353,0.16338 0.89861,-0.0817 0.73523,-0.73523 l 0.0817,-0.0817 c 1.22538,0.16338 1.22538,-0.57185 1.30708,-1.30708 z"
   id="arrector_pili_muscle"
   style="stroke-width:0.816923" /><path
   class="st3"
   d="m 273.57974,154.9469 -1.14369,-1.14369 c 0.49015,-2.124 -1.22539,-2.85923 -2.53246,-3.67615 -5.88185,-3.51277 -12.09046,-4.49308 -18.62585,-2.124 -2.94092,1.062 -6.29031,1.71554 -7.434,5.31 v 0 c -0.65354,-0.0817 -0.89861,0.24507 -0.81692,0.81692 v 0 c -4.81985,3.02262 -5.63677,8.33261 -7.35231,13.07077 v 0 c -3.92123,1.22538 -5.14661,0.32677 -4.90153,-3.75785 0.0817,-0.65354 0.16338,-1.30707 0.32676,-1.96061 2.124,-9.31292 4.90154,-18.46246 9.39462,-27.04015 v 0 l 4.248,-1.63385 c -5.80016,8.74108 -8.00585,18.78923 -11.11015,29.08246 1.87892,-0.89862 1.87892,-2.20569 2.28738,-3.186 4.32969,-9.72138 12.00877,-14.45954 22.54707,-14.37785 10.29323,0.0817 17.97231,4.98323 21.64846,14.37785 1.96062,5.06492 3.59446,9.31292 8.16923,13.15246 6.94385,5.80015 3.59446,17.64554 -4.98323,22.05692 -2.45077,1.30708 -6.12692,0.73523 -7.434,3.59446 -1.14369,2.45077 0.32677,5.31 0.49016,8.00585 0.73523,11.68199 -10.94677,21.40338 -22.22031,18.62584 -0.57184,-0.0817 -1.062,-0.24508 -1.47046,-0.57185 -3.59446,-3.51277 -7.92415,-3.83953 -12.82569,-3.92123 -5.88185,-0.0817 -9.23123,-3.92123 -10.21154,-9.72138 -0.16338,-0.89862 -0.49015,-1.79723 -0.9803,-3.59446 -1.1437,7.18892 -0.32677,14.54123 2.20569,21.32169 4.49307,12.00877 8.25092,24.26261 11.92707,36.59815 1.79723,1.87892 4.73816,2.77754 5.14662,5.88184 v 0 l -0.81693,0.81693 v -0.0817 c -0.81692,0.24508 -1.062,0.89862 -0.81692,1.63385 v 0 c -0.57184,0 -0.89861,0.24508 -0.81692,0.81692 v 0 c -0.65354,0.16339 -0.73523,0.73523 -0.81692,1.22539 0.24507,7.67907 0.9803,15.35815 -1.22539,22.95553 -3.67615,12.66231 -11.60031,21.81185 -23.20061,27.85708 -0.89862,0.0817 -1.96062,0 -2.77754,0.40846 -7.51569,3.83954 -15.19477,3.59446 -23.2823,1.71554 -2.94093,-0.73523 -4.49308,-3.51277 -7.5157,-3.51277 -14.05107,-10.12985 -18.95261,-24.83446 -20.42307,-41.25461 -1.71554,-18.46246 5.14661,-34.71923 13.72431,-50.32246 2.77753,-4.98323 4.41138,-10.45661 4.98323,-16.09338 1.87892,-17.48215 4.98323,-34.80092 8.57769,-51.9563 1.71554,-8.25092 2.45077,-16.66523 2.28738,-24.99785 -0.0817,-3.26769 -2.28738,-4.73815 -4.32969,-6.45369 2.04231,-0.32677 3.92123,0.32677 5.88185,0.81693 v 0 c 0.32676,1.55215 0.73523,3.186 0.89861,4.73815 0.81692,9.06784 -0.24508,18.13569 -2.124,26.95846 -3.34938,15.68492 -5.96354,31.53322 -7.84246,47.46322 -1.062,8.08754 -2.04231,16.09339 -6.94385,23.03723 -1.14369,1.55215 -2.20569,3.43108 -2.12399,5.63677 v 0 c -1.062,0.73523 -1.71554,1.96061 -1.63385,3.26769 v 0 c -0.40846,0.32677 -0.73523,0.73523 -0.98031,1.22539 -6.53538,12.49892 -8.98615,26.79507 -6.94384,40.76445 0.73523,5.47339 1.30707,11.27354 4.73815,16.01169 v 0 c -0.0817,1.96062 0.81692,3.83954 2.45077,4.90154 v 0 c 0.65354,2.45077 1.63384,4.57477 4.08461,5.71846 v 0 c -0.24507,0.89862 0.32677,1.47046 0.89862,1.96062 l 3.67615,3.59446 c 3.92123,3.83954 8.98615,5.63677 14.13277,6.2903 7.51569,0.98031 15.03138,0.65354 21.32169,-4.57476 v 0 c 2.28738,-0.0817 4.08461,-0.98031 4.90154,-3.2677 v 0 c 3.26769,-0.73523 5.2283,-2.85923 6.53538,-5.71846 v 0 c 0.65354,-0.16338 1.062,-0.81692 0.89862,-1.47046 0,-0.0817 0,-0.0817 -0.0817,-0.16338 v 0 c 1.22539,0.0817 1.55216,-0.65354 1.63385,-1.63385 v 0 c 1.22538,-0.57184 1.96062,-1.96061 1.63385,-3.26769 v 0 c 2.28738,-1.22539 2.61415,-3.67615 3.26769,-5.80015 3.75784,-10.78339 2.69584,-21.56677 0.40846,-32.43185 -3.02262,-14.37784 -8.41431,-27.93876 -12.744,-41.90815 -2.124,-6.69876 -2.61415,-13.56092 -0.65354,-20.42307 0.57185,-1.96061 1.71554,-4.81985 4.08462,-4.41138 2.20569,0.49015 1.38877,3.43107 1.55215,5.39169 0.16339,3.186 -0.81692,6.61707 2.53246,8.90446 v 0 c 2.04231,3.26769 5.39169,2.61415 8.41431,2.53246 3.02261,-0.0817 5.55508,0.24508 8.00584,2.69585 3.75785,3.75784 11.11016,2.94092 15.35816,-1.1437 v 0 c 4.1663,-1.47046 5.88184,-4.81984 6.61707,-8.82276 0.89862,-5.22831 -0.49015,-10.45662 0,-15.68493 v 0 c 4.16631,-0.24507 8.08754,-1.71553 11.43692,-4.1663 5.14662,-3.83954 5.80016,-11.92708 1.47047,-16.17508 v 0 c 0,-0.49015 -0.32677,-0.81692 -0.81693,-0.81692 v 0 c -0.16338,-0.32677 -0.32677,-0.89862 -0.65354,-0.98031 -4.98323,-1.47046 -6.372,-4.65646 -6.20861,-9.80307 0.16338,-2.61416 -0.73523,-6.53539 -4.98323,-7.18893 z"
   id="hair_follicle"
   style="stroke-width:0.816923" /><path
   class="st4"
   d="m 186.74083,323.96827 c 3.02261,0 4.57477,2.85923 7.51569,3.51277 8.00584,1.96061 15.76661,2.124 23.2823,-1.71554 0.81693,-0.40846 1.87893,-0.24508 2.77754,-0.40846 4.248,3.02261 3.59446,7.76077 4.49308,12.00876 0.0817,0.32677 -0.40846,0.81693 -0.32677,1.1437 0.49015,2.85923 2.28738,6.12692 -1.14369,8.00584 -2.45077,1.38877 -5.31,2.04231 -8.16923,1.79723 -0.40847,-0.0817 -0.81693,0.49016 -1.22539,0.81693 -6.78046,1.062 -13.64261,2.28738 -20.50477,0.81692 -2.45076,-0.57185 -4.90153,-1.55216 -7.3523,-1.71554 -2.04231,-0.0817 -3.67616,-1.22538 -3.26769,-2.61415 1.14369,-4.3297 -3.2677,-8.90446 0.81692,-13.07077 0.81692,-0.81692 -1.47046,-1.63385 -0.81692,-3.02262 0.73523,-2.124 1.55215,-4.41138 3.92123,-5.55507 z"
   id="path12"
   style="stroke-width:0.816923" /><path
   class="st5"
   d="m 193.27621,350.02811 c 6.94385,1.38877 13.72431,0.24508 20.50477,-0.81692 1.22538,1.55215 2.20569,3.186 0.24507,4.90154 -0.9803,0.81692 -0.24507,1.71553 -0.24507,2.53246 -0.16339,4.08461 -2.69585,7.67907 -4.73816,10.62 -1.38877,1.96061 -6.61707,1.30707 -10.12984,0.89861 -0.65354,-0.16338 -1.22539,-0.57185 -1.55215,-1.22538 -1.55216,-4.73816 -4.90154,-8.74108 -5.88185,-13.72431 -0.16338,-1.30708 0.16338,-2.69585 1.79723,-3.186 z"
   id="path14"
   style="stroke-width:0.816923" /><path
   class="st6"
   d="m 179.30683,241.45905 c -0.16339,-2.2057 0.9803,-4.00293 2.124,-5.63677 4.90153,-6.94385 5.88184,-14.94969 6.86215,-23.03723 1.96062,-15.93 4.57477,-31.7783 7.84246,-47.46322 1.87892,-8.82277 2.94092,-17.89062 2.124,-26.95846 -0.16338,-1.55216 -0.57185,-3.186 -0.89861,-4.73816 2.85923,0.57185 1.87892,3.186 2.61415,4.81985 0.57184,17.40046 -4.41139,33.98399 -7.02554,50.8943 -1.63384,10.62 -3.10431,21.32169 -4.49308,32.02338 -0.40846,3.26769 -1.47046,6.20862 -2.45076,9.31292 -2.04231,3.75785 -3.75785,7.67908 -6.69877,10.78339 z"
   id="path16"
   style="stroke-width:0.816923" /><path
   class="st3"
   d="m 355.19034,147.5946 -5.96353,9.06784 c -1.22539,-0.81692 -1.38877,-2.20569 -1.79723,-3.51277 -1.062,-3.186 -0.73523,-6.69877 -2.45077,-9.72138 1.55215,-2.124 3.75784,-3.59446 5.80015,-5.14662 -0.0817,3.83954 0.81692,7.18893 4.41138,9.31293 z"
   id="path18"
   style="stroke-width:0.816923" /><path
   class="st0"
   d="m 355.19034,147.5946 c -3.67615,-2.04231 -4.49307,-5.3917 -4.32969,-9.31293 l 6.45369,-6.2903 c 1.38877,1.14369 -0.24507,2.20569 0,3.34938 0.49016,2.04231 -0.24507,4.90154 3.34939,4.81985 -1.22539,2.85923 -3.34939,5.14661 -5.47339,7.434 z"
   id="path20"
   style="stroke-width:0.816923" /><path
   class="st6"
   d="m 294.98312,130.52091 c -14.868,1.14369 -29.89938,1.14369 -44.76738,-0.16339 14.868,-0.16338 29.81769,0.32677 44.76738,0.16339 z"
   id="path22"
   style="stroke-width:0.816923" /><path
   class="st7"
   d="m 345.0605,143.42829 c 1.71554,3.02261 1.38877,6.53538 2.45077,9.72138 0.40846,1.30708 0.57185,2.69585 1.79723,3.51277 -1.87892,1.55216 -1.87892,4.41139 -4.08462,5.71846 -1.79723,-3.67615 -1.47046,-7.84246 -2.45076,-11.682 -0.40847,-1.47046 -0.49016,-2.94092 -1.79723,-3.92123 z"
   id="path24"
   style="stroke-width:0.816923" /><path
   class="st6"
   d="m 240.57605,134.44214 c -4.49308,8.496 -7.27061,17.64553 -9.39461,27.04015 -0.16339,0.65354 -0.24508,1.30707 -0.32677,1.96061 -0.24508,4.00292 0.9803,4.90154 4.90154,3.75785 -0.24508,1.87892 -1.38877,2.61415 -3.10431,2.36907 -1.38877,-0.24507 -2.45077,-1.30707 -2.77754,-2.61415 -0.89862,-2.85923 -0.24508,-5.63677 0.57185,-8.33261 1.96061,-6.69877 4.08461,-13.31585 6.20861,-20.01462 1.47046,-1.14369 1.38877,-3.92123 3.92123,-4.1663 z"
   id="path26"
   style="stroke-width:0.816923" /><path
   class="st6"
   d="m 143.85237,131.90968 h 38.80384 v 0.81692 h -38.80384 z"
   id="path28"
   style="stroke-width:0.816923" /><path
   class="st7"
   d="m 248.01005,270.13304 c -0.40846,-3.1043 -3.34938,-4.00292 -5.14661,-5.88184 l 4.81984,-4.98323 c 1.30708,4.57477 3.59446,6.45369 8.65938,7.10723 -2.85923,1.14369 -5.31,3.1043 -8.33261,3.75784 z"
   id="path30"
   style="stroke-width:0.816923" /><path
   class="st8"
   d="m 360.74542,140.24229 c -3.59446,0.0817 -2.94092,-2.77754 -3.34938,-4.81985 -0.24508,-1.14369 1.38877,-2.20569 0,-3.34938 1.22538,-1.96062 3.02261,-3.43108 5.14661,-4.32969 -2.36907,3.51277 -1.062,6.04523 0.16339,8.57769 0.89861,1.96061 -0.65354,2.94092 -1.96062,3.92123 z"
   id="path32"
   style="stroke-width:0.816923" /><path
   class="st7"
   d="m 335.33912,182.80398 c 1.96061,-7.18893 5.55507,-13.56092 9.63969,-19.68785 -2.124,7.10723 -5.80016,13.39754 -9.63969,19.68785 z"
   id="path34"
   style="stroke-width:0.816923" /><path
   class="st7"
   d="m 288.8562,246.52397 c 1.71554,-4.00292 4.98323,-7.27062 8.98615,-8.98615 -2.53246,3.43107 -5.55507,6.45369 -8.98615,8.98615 z"
   id="path36"
   style="stroke-width:0.816923" /><path
   class="st7"
   d="m 299.39451,235.90397 c 0.9803,-4.00292 3.67615,-7.35231 7.43399,-8.98615 -1.87892,3.43107 -4.65646,6.20861 -7.43399,8.98615 z"
   id="path38"
   style="stroke-width:0.816923" /><path
   class="st7"
   d="m 278.97143,254.61151 c 1.87892,-3.186 4.16631,-5.96354 8.16923,-6.53539 -2.28738,2.61416 -4.65646,5.31 -8.16923,6.53539 z"
   id="path40"
   style="stroke-width:0.816923" /><path
   class="st6"
   d="m 244.74236,132.88998 -4.248,1.63385 c 1.062,-2.94092 3.43108,-3.186 6.69877,-3.34939 z"
   id="path42"
   style="stroke-width:0.816923" /><path
   class="st6"
   d="m 197.36083,133.70691 c -1.96062,-0.49016 -3.83954,-1.22539 -5.88185,-0.81693 l -1.47046,-0.32677 v 0.0817 c 2.53246,0.0817 5.55507,-3.2677 7.35231,1.062 z"
   id="path44"
   style="stroke-width:0.816923" /><path
   class="st7"
   d="m 331.2545,190.15628 c 0.32677,-2.53246 0.49016,-5.2283 3.59446,-6.20861 -0.89861,2.20569 -1.79723,4.49308 -3.59446,6.20861 z"
   id="path46"
   style="stroke-width:0.816923" /><path
   class="st7"
   d="m 327.98681,195.87474 c 0.16338,-2.45076 0.57185,-4.73815 3.34938,-5.71846 -0.73523,2.124 -1.79723,4.08462 -3.34938,5.71846 z"
   id="path48"
   style="stroke-width:0.816923" /><path
   class="st7"
   d="m 306.8285,226.91782 c -0.24507,-2.45077 0.73524,-3.92123 3.2677,-4.16631 -0.73523,1.63385 -1.87893,3.10431 -3.2677,4.16631 z"
   id="path50"
   style="stroke-width:0.816923" /><path
   class="st7"
   d="m 314.18081,217.11474 c -0.24508,-2.04231 0.40846,-3.51277 2.69585,-3.92123 -0.49016,1.55216 -1.47046,2.94092 -2.69585,3.92123 z"
   id="path52"
   style="stroke-width:0.816923" /><path
   class="st7"
   d="m 270.14866,259.75812 c 0.65354,-2.04231 2.124,-2.69584 4.16631,-2.28738 -1.14369,1.14369 -2.53246,1.87892 -4.16631,2.28738 z"
   id="path54"
   style="stroke-width:0.816923" /><path
   class="st7"
   d="m 263.94005,234.76028 c 0.0817,1.87892 -0.16339,3.59446 -2.53246,4.00292 0.40846,-1.63385 1.30707,-3.02261 2.53246,-4.00292 z"
   id="path56"
   style="stroke-width:0.816923" /><path
   class="st7"
   d="m 323.33035,203.39044 c -0.0817,-1.96062 0.24508,-3.59447 2.45077,-4.00293 -0.32677,1.55216 -1.22539,2.94093 -2.45077,4.00293 z"
   id="path58"
   style="stroke-width:0.816923" /><path
   class="st7"
   d="m 325.86281,199.30582 c -0.40846,-1.87892 0.0817,-3.10431 2.124,-3.51277 -0.24508,1.38877 -0.98031,2.61416 -2.124,3.51277 z"
   id="path60"
   style="stroke-width:0.816923" /><path
   class="st7"
   d="m 310.0145,222.8332 c -0.16338,-1.87892 0.24508,-3.26769 2.45077,-3.34938 -0.40846,1.30708 -1.22538,2.53246 -2.45077,3.34938 z"
   id="path62"
   style="stroke-width:0.816923" /><path
   class="st7"
   d="m 330.35589,154.86521 c 0,1.71554 -0.81693,2.61415 -2.61416,2.36908 0.57185,-1.14369 1.47046,-1.96062 2.61416,-2.36908 z"
   id="path64"
   style="stroke-width:0.816923" /><path
   class="st7"
   d="m 285.01666,202.90028 c 0.73523,2.124 -0.49015,2.85923 -2.28738,3.26769 0.40846,-1.30707 1.22538,-2.45076 2.28738,-3.26769 z"
   id="path66"
   style="stroke-width:0.816923" /><path
   class="st7"
   d="m 275.94882,256.49043 c 0.16338,-2.04231 1.63384,-1.96062 3.1043,-1.87892 -0.73523,0.9803 -1.87892,1.71553 -3.1043,1.87892 z"
   id="path68"
   style="stroke-width:0.816923" /><path
   class="st7"
   d="m 255.68913,247.74935 c 0.57184,1.47047 0.0817,2.28739 -1.55216,2.45077 0.16339,-0.9803 0.73523,-1.87892 1.55216,-2.45077 z"
   id="path70"
   style="stroke-width:0.816923" /><path
   class="st7"
   d="m 320.14435,208.29197 c -0.49015,-1.47046 -0.0817,-2.28738 1.55215,-2.45077 -0.0817,0.98031 -0.65354,1.87893 -1.55215,2.45077 z"
   id="path72"
   style="stroke-width:0.816923" /><path
   class="st7"
   d="m 261.32589,238.7632 c 0.65354,1.47046 0.0817,2.28739 -1.47046,2.45077 0.16339,-0.98031 0.65354,-1.87892 1.47046,-2.45077 z"
   id="path74"
   style="stroke-width:0.816923" /><path
   class="st7"
   d="m 274.31497,218.42182 c 0.73523,1.55215 0.32677,2.36908 -1.47046,2.28738 z"
   id="path76"
   style="stroke-width:0.816923" /><path
   class="st7"
   d="m 312.46527,219.48382 c -0.0817,-1.22539 -0.0817,-2.45077 1.71554,-2.45077 -0.24508,1.062 -0.81692,1.87892 -1.71554,2.45077 z"
   id="path78"
   style="stroke-width:0.816923" /><path
   class="st7"
   d="m 252.50313,252.65089 c 0.49015,1.47046 0,2.36908 -1.63385,2.36908 0.24508,-0.89862 0.81692,-1.79723 1.63385,-2.36908 z"
   id="path80"
   style="stroke-width:0.816923" /><path
   class="st7"
   d="m 279.21651,211.06951 c 0.65354,1.47046 0.40846,2.36908 -1.47046,2.20569 z"
   id="path82"
   style="stroke-width:0.816923" /><path
   class="st7"
   d="m 250.78759,255.10166 c 0.49015,1.47046 0.32677,2.45077 -1.63385,2.20569 0.57185,-0.73523 1.14369,-1.47046 1.63385,-2.20569 z"
   id="path84"
   style="stroke-width:0.816923" /><path
   class="st7"
   d="m 316.87666,213.19351 c -0.40846,-1.47046 0,-2.36907 1.63384,-2.45077 -0.16338,0.98031 -0.81692,1.87893 -1.63384,2.45077 z"
   id="path86"
   style="stroke-width:0.816923" /><path
   class="st7"
   d="m 282.72928,206.16797 c 0.40846,1.47047 0.0817,2.36908 -1.63385,2.36908 0.24508,-1.062 0.81692,-1.87892 1.63385,-2.36908 z"
   id="path88"
   style="stroke-width:0.816923" /><path
   class="st7"
   d="m 334.03204,152.08767 c 0.24508,1.87893 -0.81692,1.96062 -2.20569,1.71554 0.40846,-0.81692 1.22538,-1.38877 2.20569,-1.71554 z"
   id="path90"
   style="stroke-width:0.816923" /><path
   class="st7"
   d="m 280.93205,208.61874 c 0.57184,1.47046 0.24507,2.36908 -1.55216,2.28739 z"
   id="path92"
   style="stroke-width:0.816923" /><path
   class="st7"
   d="m 275.94882,215.97105 c 0.73523,1.55215 0.40846,2.36908 -1.47047,2.20569 z"
   id="path94"
   style="stroke-width:0.816923" /><path
   class="st7"
   d="m 321.7782,205.8412 c -0.49016,-1.47046 0,-2.28738 1.55215,-2.45076 -0.16339,0.9803 -0.73523,1.87892 -1.55215,2.45076 z"
   id="path96"
   style="stroke-width:0.816923" /><path
   class="st7"
   d="m 267.04436,229.77705 c 0.73523,1.55215 0.16338,2.28738 -1.47047,2.36907 0.0817,-0.89861 0.65354,-1.79723 1.47047,-2.36907 z"
   id="path98"
   style="stroke-width:0.816923" /><path
   class="st7"
   d="m 269.65851,225.77413 c 0.40846,1.47046 -0.0817,2.28738 -1.63385,2.53246 0.16339,-1.062 0.73523,-2.04231 1.63385,-2.53246 z"
   id="path100"
   style="stroke-width:0.816923" /><path
   class="st7"
   d="m 271.21066,223.24166 c 0.49016,1.47047 0,2.28739 -1.55215,2.45077 0.16338,-0.9803 0.73523,-1.87892 1.55215,-2.45077 z"
   id="path102"
   style="stroke-width:0.816923" /><path
   class="st7"
   d="m 265.4922,232.22782 c 0.57185,1.47046 0,2.28738 -1.55215,2.45077 0.16338,-0.98031 0.73523,-1.87893 1.55215,-2.45077 z"
   id="path104"
   style="stroke-width:0.816923" /><path
   class="st7"
   d="m 254.13697,250.20012 c 0.49016,1.47046 0,2.28739 -1.55215,2.45077 0.16338,-0.98031 0.73523,-1.87892 1.55215,-2.45077 z"
   id="path106"
   style="stroke-width:0.816923" /><path
   class="st7"
   d="m 272.76282,220.87259 c 0.73523,1.55215 0.16338,2.28738 -1.47047,2.45077 0.16339,-0.98031 0.65354,-1.87893 1.47047,-2.45077 z"
   id="path108"
   style="stroke-width:0.816923" /><path
   class="st7"
   d="m 277.58266,213.52028 c 0.65354,1.55215 0.40846,2.36908 -1.47046,2.20569 0.49015,-0.81692 0.98031,-1.47046 1.47046,-2.20569 z"
   id="path110"
   style="stroke-width:0.816923" /><path
   class="st7"
   d="m 259.85543,241.21397 c 0.49016,1.47046 -0.0817,2.28738 -1.55215,2.53246 0.16338,-0.98031 0.73523,-1.96061 1.55215,-2.53246 z"
   id="path112"
   style="stroke-width:0.816923" /><path
   class="st7"
   d="m 318.5105,210.74274 c -0.49015,-1.47046 -0.0817,-2.36907 1.55216,-2.45077 -0.0817,0.98031 -0.65354,1.87893 -1.55216,2.45077 z"
   id="path114"
   style="stroke-width:0.816923" /><path
   class="st7"
   d="m 257.24128,245.29858 c 0.65354,1.55216 0.16338,2.28739 -1.47046,2.36908 0.16338,-0.89861 0.65354,-1.79723 1.47046,-2.36908 z"
   id="path116"
   style="stroke-width:0.816923" /><path
   class="st7"
   d="m 320.47112,163.76967 c 0.16338,1.30708 -0.40846,1.79723 -1.71554,1.63385 0.24508,-0.81693 0.89862,-1.47046 1.71554,-1.63385 z"
   id="path118"
   style="stroke-width:0.816923" /><path
   class="st7"
   d="m 256.34266,266.29351 c 0.32677,-1.55216 1.38877,-1.062 2.36908,-0.89862 -0.57185,0.81692 -1.55215,0.73523 -2.36908,0.89862 z"
   id="path120"
   style="stroke-width:0.816923" /><path
   class="st7"
   d="m 294.32958,190.72813 c 0,0.73523 0.16339,1.55215 -1.062,1.30708 z"
   id="path122"
   style="stroke-width:0.816923" /><path
   class="st7"
   d="m 258.30328,243.74643 c 0.16338,0.81692 0.24508,1.55215 -0.98031,1.47046 0.32677,-0.49015 0.65354,-0.98031 0.98031,-1.47046 z"
   id="path124"
   style="stroke-width:0.816923" /><path
   class="st7"
   d="m 274.39666,257.38904 c 0,-1.22538 0.65354,-1.14369 1.47046,-0.89861 -0.49015,0.32677 -0.9803,0.65354 -1.47046,0.89861 z"
   id="path126"
   style="stroke-width:0.816923" /><path
   class="st6"
   d="m 185.10698,132.15475 -0.98031,0.32677 c -0.49015,-0.0817 -1.22538,-0.0817 -0.65354,-0.81692 0.57185,-0.73523 1.30708,-0.16339 1.63385,0.49015 z"
   id="path128"
   style="stroke-width:0.816923" /><path
   class="st7"
   d="m 267.04436,261.47366 c 0,-1.14369 0.73523,-1.14369 1.55215,-0.81692 z"
   id="path130"
   style="stroke-width:0.816923" /><path
   class="st7"
   d="m 265.41051,262.29058 c -0.0817,-1.22538 0.65354,-1.14369 1.47046,-0.81692 z"
   id="path132"
   style="stroke-width:0.816923" /><path
   class="st7"
   d="m 263.85836,263.10751 c -0.0817,-1.22539 0.65353,-1.1437 1.47046,-0.81693 z"
   id="path134"
   style="stroke-width:0.816923" /><path
   class="st7"
   d="m 262.22451,263.92443 c 0,-1.22539 0.65354,-1.14369 1.47046,-0.81692 -0.57184,0.32676 -1.062,0.57184 -1.47046,0.81692 z"
   id="path136"
   style="stroke-width:0.816923" /><path
   class="st7"
   d="m 291.06189,194.81274 c 0,0.73524 0.0817,1.55216 -1.062,1.30708 z"
   id="path138"
   style="stroke-width:0.816923" /><path
   class="st7"
   d="m 258.71174,265.47658 c 0.16339,-1.062 0.81692,-1.062 1.63385,-0.73523 z"
   id="path140"
   style="stroke-width:0.816923" /><path
   class="st7"
   d="m 286.16035,201.34813 c 0,0.73523 0.0817,1.55215 -1.062,1.38877 z"
   id="path142"
   style="stroke-width:0.816923" /><path
   class="st7"
   d="m 331.82635,153.8849 c -0.0817,0.98031 -0.73523,1.062 -1.55216,1.062 0.32677,-0.65354 0.89862,-1.062 1.55216,-1.062 z"
   id="path144"
   style="stroke-width:0.816923" /><path
   class="st7"
   d="m 287.14066,200.12274 c -0.0817,0.65354 -0.24508,1.1437 -0.98031,1.30708 0.0817,-0.65354 0.24508,-1.22538 0.98031,-1.30708 z"
   id="path146"
   style="stroke-width:0.816923" /><path
   class="st7"
   d="m 268.10636,228.22489 c 0.16338,0.81693 0.24507,1.55216 -0.98031,1.47047 0.32677,-0.49016 0.65354,-0.98031 0.98031,-1.47047 z"
   id="path148"
   style="stroke-width:0.816923" /><path
   class="st7"
   d="m 297.67897,186.72521 c 0,0.73523 0,1.47046 -1.1437,1.30707 z"
   id="path150"
   style="stroke-width:0.816923" /><path
   class="st7"
   d="m 268.59651,260.57504 c 0.0817,-1.062 0.73523,-1.062 1.55215,-0.89861 z"
   id="path152"
   style="stroke-width:0.816923" /><path
   class="st7"
   d="m 289.83651,196.28321 c 0.40846,0.9803 -0.24508,1.062 -0.89862,1.14369 z"
   id="path154"
   style="stroke-width:0.816923" /><path
   class="st7"
   d="m 307.56374,176.10521 c -0.0817,0.73523 -0.0817,1.55215 -1.1437,1.38877 0.32677,-0.49016 0.73523,-0.98031 1.1437,-1.38877 z"
   id="path156"
   style="stroke-width:0.816923" /><path
   class="st7"
   d="m 325.12758,159.52167 c 0.0817,1.14369 -0.65354,1.14369 -1.47046,1.14369 z"
   id="path158"
   style="stroke-width:0.816923" /><path
   class="st7"
   d="m 246.29451,272.58381 c -0.16338,-0.81692 0,-1.38877 0.81692,-1.63384 0.49016,0.89861 -0.0817,1.22538 -0.81692,1.63384 z"
   id="path160"
   style="stroke-width:0.816923" /><path
   class="st7"
   d="m 311.23989,172.59244 c 0.16338,1.14369 -0.57185,1.14369 -1.30708,1.14369 z"
   id="path162"
   style="stroke-width:0.816923" /><path
   class="st7"
   d="m 260.50897,264.74135 c 0,-1.14369 0.65354,-1.14369 1.47046,-0.81692 z"
   id="path164"
   style="stroke-width:0.816923" /><path
   class="st7"
   d="m 249.07205,257.55243 c 0.24508,0.65354 0,0.81692 -0.65354,0.73523 z"
   id="path166"
   style="stroke-width:0.816923" /><path
   class="st7"
   d="m 327.82343,157.23429 c 0,0.49015 -0.32677,0.81692 -0.81693,0.81692 h -0.0817 z"
   id="path168"
   style="stroke-width:0.816923" /><path
   class="st7"
   d="m 326.92481,157.96952 c 0.0817,0.40846 -0.24508,0.73523 -0.57185,0.81692 -0.0817,0 -0.16338,0 -0.24507,0 z"
   id="path170"
   style="stroke-width:0.816923" /><path
   class="st7"
   d="m 326.02619,158.78644 c 0.0817,0.57185 -0.24507,0.89862 -0.81692,0.73523 z"
   id="path172"
   style="stroke-width:0.816923" /><path
   class="st7"
   d="m 323.00358,161.23721 -0.89862,0.98031 z"
   id="path174"
   style="stroke-width:0.816923" /><path
   class="st7"
   d="m 322.18666,162.13583 -0.89862,0.89861 z"
   id="path176"
   style="stroke-width:0.816923" /><path
   class="st7"
   d="m 321.36973,162.95275 -0.89861,0.89861 z"
   id="path178"
   style="stroke-width:0.816923" /><path
   class="st7"
   d="m 318.83727,165.32183 c 0,0.49015 -0.32677,0.81692 -0.81692,0.81692 h -0.0817 z"
   id="path180"
   style="stroke-width:0.816923" /><path
   class="st7"
   d="m 317.93866,166.13875 c 0.0817,0.40846 -0.24508,0.81692 -0.65354,0.81692 -0.0817,0 -0.0817,0 -0.16339,0 z"
   id="path182"
   style="stroke-width:0.816923" /><path
   class="st7"
   d="m 317.12173,166.95567 c 0,0.57185 -0.24507,0.89862 -0.89861,0.81692 z"
   id="path184"
   style="stroke-width:0.816923" /><path
   class="st7"
   d="m 316.22312,167.6909 c 0.0817,0.57185 -0.16339,0.89862 -0.81692,0.81692 z"
   id="path186"
   style="stroke-width:0.816923" /><path
   class="st7"
   d="m 315.4062,168.50782 c 0.0817,0.57185 -0.16339,0.89862 -0.81693,0.73524 z"
   id="path188"
   style="stroke-width:0.816923" /><path
   class="st7"
   d="m 314.42589,169.32475 c 0.16338,0.65354 -0.0817,0.89861 -0.73523,0.73523 z"
   id="path190"
   style="stroke-width:0.816923" /><path
   class="st7"
   d="m 313.60897,170.14167 c 0.16338,0.65354 -0.0817,0.89862 -0.73524,0.73523 0.32677,-0.24508 0.57185,-0.49015 0.73524,-0.73523 z"
   id="path192"
   style="stroke-width:0.816923" /><path
   class="st7"
   d="m 312.79204,170.95859 c 0.16339,0.65354 -0.0817,0.89862 -0.73523,0.73523 z"
   id="path194"
   style="stroke-width:0.816923" /><path
   class="st7"
   d="m 247.11143,270.94997 0.81693,-0.81693 c 0.40846,0.89862 -0.0817,0.98031 -0.81693,0.81693 z"
   id="path196"
   style="stroke-width:0.816923" /><path
   class="st7"
   d="m 311.97512,171.77552 c 0.16338,0.65353 -0.0817,0.89861 -0.65354,0.73523 z"
   id="path198"
   style="stroke-width:0.816923" /><path
   class="st7"
   d="m 245.47759,273.40074 c 0,-0.57185 0.24508,-0.89862 0.81692,-0.81693 0,0.40846 -0.32677,0.81693 -0.81692,0.81693 z"
   id="path200"
   style="stroke-width:0.816923" /><path
   class="st7"
   d="m 244.66067,274.62612 c 0.0817,-0.57185 0.16338,-1.14369 0.81692,-1.22538 z"
   id="path202"
   style="stroke-width:0.816923" /><path
   class="st7"
   d="m 306.33835,177.49398 c 0.16339,0.65354 -0.0817,0.89861 -0.73523,0.73523 0.24508,-0.24508 0.49015,-0.49016 0.73523,-0.73523 z"
   id="path204"
   style="stroke-width:0.816923" /><path
   class="st7"
   d="m 305.52143,178.3109 c 0.16338,0.65354 -0.0817,0.89862 -0.73523,0.73523 0.24507,-0.24508 0.49015,-0.49015 0.73523,-0.73523 z"
   id="path206"
   style="stroke-width:0.816923" /><path
   class="st7"
   d="m 304.7045,179.12782 c 0.16339,0.65354 -0.0817,0.89862 -0.73523,0.73523 z"
   id="path208"
   style="stroke-width:0.816923" /><path
   class="st7"
   d="m 248.33682,258.36935 c 0.16338,0.65354 -0.0817,0.81693 -0.65354,0.81693 z"
   id="path210"
   style="stroke-width:0.816923" /><path
   class="st7"
   d="m 297.76066,237.53782 0.89861,-0.89862 z"
   id="path212"
   style="stroke-width:0.816923" /><path
   class="st7"
   d="m 303.88758,179.94475 c 0.0817,0.65353 -0.16338,0.89861 -0.73523,0.81692 z"
   id="path214"
   style="stroke-width:0.816923" /><path
   class="st7"
   d="m 303.15235,180.76167 c 0.0817,0.57185 -0.16338,0.89861 -0.73523,0.81692 0.16339,-0.24507 0.40846,-0.49015 0.73523,-0.81692 z"
   id="path216"
   style="stroke-width:0.816923" /><path
   class="st7"
   d="m 302.41712,181.66028 c 0,0.57185 -0.24508,0.89862 -0.81692,0.81693 0.24507,-0.32677 0.49015,-0.57185 0.81692,-0.81693 z"
   id="path218"
   style="stroke-width:0.816923" /><path
   class="st7"
   d="m 301.6002,182.47721 c 0.0817,0.40846 -0.16339,0.81692 -0.57185,0.89861 -0.0817,0 -0.16338,0 -0.24508,0 0.24508,-0.32677 0.49016,-0.65354 0.81693,-0.89861 z"
   id="path220"
   style="stroke-width:0.816923" /><path
   class="st7"
   d="m 334.84896,183.78428 c -0.24507,-0.49015 0.0817,-0.81692 0.49016,-0.9803 -0.0817,0.24507 -0.32677,0.65354 -0.49016,0.9803 z"
   id="path222"
   style="stroke-width:0.816923" /><path
   class="st7"
   d="m 300.86497,183.29413 c 0,0.49015 -0.32677,0.89862 -0.81693,0.89862 z"
   id="path224"
   style="stroke-width:0.816923" /><path
   class="st7"
   d="m 300.04804,184.11105 -0.81692,0.89862 z"
   id="path226"
   style="stroke-width:0.816923" /><path
   class="st7"
   d="m 287.95758,247.34089 0.89862,-0.81692 z"
   id="path228"
   style="stroke-width:0.816923" /><path
   class="st7"
   d="m 287.14066,248.07612 0.89862,-0.81692 z"
   id="path230"
   style="stroke-width:0.816923" /><path
   class="st7"
   d="m 299.23112,185.00967 c -0.24508,0.32677 -0.57185,0.65354 -0.81692,0.89861 0.32677,-0.32677 0.57184,-0.57184 0.81692,-0.89861 z"
   id="path232"
   style="stroke-width:0.816923" /><path
   class="st7"
   d="m 298.49589,185.82659 -0.81692,0.89862 z"
   id="path234"
   style="stroke-width:0.816923" /><path
   class="st7"
   d="m 296.53527,188.11398 c 0.16339,0.65353 -0.0817,0.89861 -0.73523,0.81692 z"
   id="path236"
   style="stroke-width:0.816923" /><path
   class="st7"
   d="m 295.80004,189.01259 c 0.0817,0.57185 -0.16338,0.89862 -0.73523,0.89862 z"
   id="path238"
   style="stroke-width:0.816923" /><path
   class="st7"
   d="m 293.18589,192.19859 c 0.24508,0.65354 0,0.81692 -0.65354,0.73523 z"
   id="path240"
   style="stroke-width:0.816923" /><path
   class="st7"
   d="m 292.53235,193.01551 c 0.0817,0.57185 -0.16338,0.89862 -0.73523,0.89862 z"
   id="path242"
   style="stroke-width:0.816923" /><path
   class="st7"
   d="m 291.79712,193.91413 -0.81692,0.98031 z"
   id="path244"
   style="stroke-width:0.816923" /><path
   class="st7"
   d="m 295.14651,189.82951 c 0,0.49016 -0.32677,0.89862 -0.81693,0.89862 0.24508,-0.24508 0.49016,-0.57185 0.81693,-0.89862 z"
   id="path246"
   style="stroke-width:0.816923" /><path
   class="st7"
   d="m 335.33912,151.43413 c -0.24508,0.49016 -0.49016,0.81693 -1.1437,0.65354 0.16339,-0.49015 0.65354,-0.73523 1.1437,-0.65354 z"
   id="path248"
   style="stroke-width:0.816923" /><path
   class="st9"
   d="m 179.30683,241.45905 c 2.94092,-3.10431 4.57477,-7.02554 6.69877,-10.70169 l 1.55215,0.32676 c -1.47046,7.18893 -5.14662,13.72431 -6.53538,20.99493 -0.32677,1.63384 -1.1437,3.186 -0.81693,4.90153 -1.47046,2.85923 -1.47046,6.04523 -2.36907,8.98616 -0.89862,2.94092 -1.062,6.2903 -1.38877,9.39461 -0.40846,3.26769 -1.22539,6.86215 0.49015,10.21154 0,4.1663 0.89862,8.33261 2.53246,12.17215 0.24508,0.81692 0.57185,1.63385 0.89862,2.45077 0.65354,3.75784 3.1043,6.45369 5.63677,8.98615 2.45076,3.43108 5.88184,5.96354 9.80307,7.35231 3.34939,1.87892 6.78046,3.186 10.62,1.63384 h 4.90154 c 9.4763,-2.45076 16.50184,-7.92415 20.42307,-17.07369 1.30708,-0.73523 0.32677,-2.53246 1.63385,-3.34938 1.47046,-3.67615 3.186,-7.27061 2.36908,-11.35523 v -4.90154 c 0.65353,-4.1663 -1.062,-8.08753 -0.89862,-12.25384 -0.40846,-0.89862 -1.63385,-1.22539 -1.55215,-2.45077 0.16338,-2.85923 0.0817,-5.71846 -1.63385,-8.16923 0.32677,-1.96062 -0.24508,-3.83954 -0.81692,-5.71846 -0.24508,-7.10723 -2.94093,-13.56092 -4.90154,-20.25969 0.40846,-0.98031 1.30708,-1.062 2.20569,-1.062 0.57185,1.38877 -0.0817,2.94092 0.81692,4.32969 3.51277,5.31 4.49308,11.51861 6.53539,17.40046 0.65354,1.71554 -0.57185,3.34938 0.32677,5.06492 4.65646,8.82277 4.90154,18.46246 5.14661,28.10215 0.16339,6.61708 -2.36907,12.66231 -4.41138,18.78923 v 0 c -1.47046,0.65354 -1.87892,1.79723 -1.63385,3.26769 v 0 c -1.14369,-0.0817 -1.55215,0.65354 -1.63384,1.63385 v 0 c -0.65354,0.24508 -1.062,0.98031 -0.81693,1.63385 v 0 0 c -2.77753,1.062 -5.14661,3.1043 -6.53538,5.71846 v 0 c -1.96062,0.40846 -3.75785,1.55215 -4.90154,3.26769 v 0 c -1.062,-0.0817 -2.20569,0.16338 -3.10431,0.73523 -10.04815,4.41138 -19.85122,4.00292 -29.32753,-1.71554 -0.89862,-0.65354 -2.04231,-0.89861 -3.10431,-0.81692 l -3.67615,-3.67616 c 0.24508,-0.81692 -0.16339,-1.63384 -0.89862,-1.96061 v 0 c -0.57184,-2.36908 -2.0423,-4.41139 -4.08461,-5.71846 v 0 c 0,-2.04231 -0.57185,-3.83954 -2.45077,-4.90154 v 0 c 0.0817,-1.38877 -0.16339,-2.69585 -0.65354,-3.92123 -5.14661,-16.50184 -4.57477,-32.75861 2.45077,-48.68861 0.73523,-1.71554 1.71554,-3.34938 1.55215,-5.39169 v 0 c 2.36908,-0.16339 1.47047,-2.04231 1.55216,-3.26769 z"
   id="path250"
   style="stroke-width:0.816923" /><path
   class="st6"
   d="m 236.49144,305.17904 c 2.0423,-6.12692 4.57476,-12.17215 4.41138,-18.78923 -0.24508,-9.63969 -0.49015,-19.27938 -5.14661,-28.10215 -0.89862,-1.71554 0.24507,-3.34938 -0.32677,-5.06492 -2.04231,-5.80016 -3.02262,-12.09046 -6.53539,-17.40046 -0.89861,-1.30708 -0.24507,-2.94092 -0.81692,-4.32969 -2.36908,-6.94385 -4.248,-13.96939 -3.92123,-21.40339 0.0817,-3.51276 1.30708,-6.94384 3.43108,-9.80307 0.81692,-1.062 1.79723,-2.28739 3.34938,-1.87892 1.55215,0.40846 2.45077,1.87892 2.20569,3.51276 -0.40846,4.3297 0.65354,8.496 1.71554,12.66231 -3.34938,-2.20569 -2.36908,-5.71846 -2.53246,-8.90446 -0.0817,-1.96061 0.65354,-4.90154 -1.55215,-5.39169 -2.28739,-0.49016 -3.51277,2.36908 -4.08462,4.41138 -1.96061,6.86216 -1.38877,13.72431 0.65354,20.42308 4.32969,13.96938 9.72138,27.5303 12.744,41.90815 2.28738,10.86507 3.34938,21.64846 -0.40846,32.43184 -0.57185,2.04231 -0.81693,4.49307 -3.186,5.71846 z"
   id="path252"
   style="stroke-width:0.816923" /><path
   class="st6"
   d="m 243.84374,153.39475 c 1.14369,-3.59446 4.49308,-4.248 7.434,-5.31 6.53539,-2.45077 12.744,-1.38877 18.62585,2.124 1.30707,0.81692 3.02261,1.55215 2.53246,3.67615 -9.06785,-7.27061 -17.40046,-7.59738 -27.12185,-1.062 -0.49015,0.16339 -0.9803,0.40846 -1.47046,0.57185 z"
   id="path254"
   style="stroke-width:0.816923" /><path
   class="st6"
   d="m 266.71759,218.5852 c -4.248,4.08462 -11.682,4.98323 -15.35816,1.1437 -2.45076,-2.45077 -4.90153,-2.77754 -8.00584,-2.69585 -3.10431,0.0817 -6.372,0.81692 -8.41431,-2.53246 3.92123,1.14369 7.84246,2.28738 12.09046,1.14369 1.38877,-0.16338 2.77754,0.40846 3.59446,1.47046 4.00293,4.90154 8.82277,4.248 13.806,1.96062 0.73523,-0.32677 1.38877,-0.81693 2.28739,-0.49016 z"
   id="path256"
   style="stroke-width:0.816923" /><path
   class="st6"
   d="m 286.24205,173.73613 c 4.32969,4.32969 3.67615,12.33554 -1.47047,16.17508 -3.34938,2.45077 -7.434,3.92123 -11.6003,4.248 0.65354,-1.47047 2.124,-1.55216 3.34938,-1.96062 11.19185,-3.92123 12.98908,-7.434 9.72139,-18.46246 z"
   id="path258"
   style="stroke-width:0.816923" /><path
   class="st6"
   d="m 273.25297,194.07751 c -0.49015,5.22831 0.89862,10.45662 0,15.68493 -0.73523,4.00292 -2.45077,7.3523 -6.61708,8.82276 -0.24507,-1.22538 0.81693,-1.55215 1.47047,-2.20569 4.08461,-3.75784 4.65646,-8.496 4.00292,-13.7243 -0.40846,-2.85924 -1.71554,-5.96354 1.14369,-8.5777 z"
   id="path260"
   style="stroke-width:0.816923" /><path
   class="st6"
   d="m 273.57974,154.9469 c 4.16631,0.65354 5.14661,4.57477 5.06492,7.18893 -0.16338,5.14661 1.22539,8.33261 6.20862,9.80307 0.24507,0.0817 0.40846,0.65354 0.65353,0.98031 -1.87892,0.0817 -3.18599,-1.38877 -4.90153,-1.63385 -2.85923,-0.49015 -3.43108,-1.96061 -2.85923,-4.81984 0.89861,-4.49308 -1.55216,-8.08754 -4.16631,-11.51862 z"
   id="path262"
   style="stroke-width:0.816923" /><g
   id="g282"
   transform="matrix(0.81692298,0,0,0.81692298,143.85237,15.089689)">
	<path
   class="st10"
   d="m 40.4,331.1 c -2.1,-4 -1,-8.5 -0.6,-12.5 0.5,-3.8 0.4,-7.8 1.7,-11.5 2.6,-0.2 5.3,0.1 7.8,1 v 2 c -1.1,0.9 -0.8,2.1 -0.8,3.2 -0.3,4.3 -0.9,8.6 -0.8,12.8 0.1,1.8 0.9,3.4 -0.6,4.9 z"
   id="path264" />
	<path
   class="st10"
   d="m 63.4,369.1 c -4.8,-1.7 -9,-4.8 -12,-9 0.6,-3.3 3.3,-4 5.9,-5 2.8,2.6 5.6,5.3 9.1,6.9 -0.2,2.7 0.9,6 -3,7.1 z"
   id="path266" />
	<path
   class="st10"
   d="m 107.4,298.1 -7,1 c -0.9,-2.3 -2.6,-4.4 -0.8,-7 l 6.9,-1 c 0.5,2.3 1.3,4.6 0.9,7 z"
   id="path268" />
	<path
   class="st10"
   d="m 103.1,309.1 6.3,-0.9 c -0.2,1.5 1.4,1.9 1.9,3 -1,4 -3.9,5.1 -7.6,4.9 -1.5,-2.2 -1.9,-4.6 -0.6,-7 z"
   id="path270" />
	<path
   class="st10"
   d="m 112.3,332.1 c -2.4,1.4 -5.4,1.4 -7.8,0 0.1,-2 0.1,-4 0.2,-6 h 7.6 z"
   id="path272" />
	<path
   class="st10"
   d="m 51.8,297.2 c -2.4,-0.2 -5,0.4 -7.3,-1.1 -0.4,-2.1 0.6,-4 1,-6 3.4,0 7.4,-0.6 6.9,4.9 -0.2,0.8 -0.4,1.5 -0.6,2.2 z"
   id="path274" />
	<path
   class="st10"
   d="m 51.5,347 c -2.5,0.2 -4.3,2.4 -7,2 -0.3,-1 -0.7,-2 -1.1,-3 0.5,-4.5 2,-5.4 6.9,-4 1.1,1.5 1.5,3.3 1.2,5 z"
   id="path276" />
	<path
   class="st10"
   d="m 103.2,342 c 2.3,1 5.7,0.2 6.2,4 -1.6,0.9 -0.4,3.2 -2,4.1 -3.2,-0.2 -6.1,-0.9 -6,-5.1 -0.1,-1.3 0.6,-2.5 1.8,-3 z"
   id="path278" />
	<path
   class="st10"
   d="m 76.5,371.1 c 0,-2.3 0,-4.6 0,-7 0.3,-0.1 0.5,-0.1 0.8,-0.1 6.2,0.3 7,1.4 5.2,7 z"
   id="path280" />
</g><path
   class="st6"
   d="m 235.67451,167.28244 c 1.71554,-4.73815 2.53246,-10.04815 7.35231,-13.07077 -2.85923,4.08462 -3.75785,9.31292 -7.35231,13.07077 z"
   id="path284"
   style="stroke-width:0.816923" /><g
   id="g310"
   transform="matrix(0.81692298,0,0,0.81692298,143.85237,15.089689)">
	<path
   class="st11"
   d="m 56.5,143.8 v 0 c -2.4,0.2 -4.8,0.8 -7.2,-0.1 l 1.2,-0.4 z"
   id="path286" />
	<path
   class="st11"
   d="m 107.4,350.1 c -4.8,11.2 -13.4,17.9 -25,20.9 1.8,-5.6 1,-6.7 -5.2,-7 8.7,-1.6 16.4,-6.7 21.4,-14 1.2,-1.6 1.2,-3.7 2.7,-5 0,4.3 2.9,4.9 6.1,5.1 z"
   id="path288" />
	<path
   class="st11"
   d="m 45.5,290.2 c 1.7,-8.9 6.1,-16.9 8,-25.7 6,-0.4 6.8,0.8 5.3,6.2 -2.3,8.1 -4.3,16.3 -6.4,24.4 0.5,-5.5 -3.4,-4.9 -6.9,-4.9 z"
   id="path290" />
	<path
   class="st11"
   d="m 100.4,266.3 c 2.4,8.2 5.6,16.1 6,24.8 l -6.9,1 c -3,-3.9 -2,-8.8 -3,-13.2 -0.5,-2.3 -0.4,-4.8 -1,-7.3 -0.9,-3.7 0.4,-6.1 4.9,-5.3 z"
   id="path292" />
	<path
   class="st11"
   d="m 111.3,311.2 c -0.2,5 1.8,9.9 1.1,15 h -7.6 c -0.5,-3.3 -1.8,-6.6 -1.1,-10 3.7,0.1 6.5,-1 7.6,-5 z"
   id="path294" />
	<path
   class="st11"
   d="m 40.4,331.1 h 6.8 c 2.8,3.2 1.6,7.5 3.2,11 -4.9,-1.4 -6.4,-0.5 -6.9,4 -2,-4.7 -3.1,-9.8 -3.1,-15 z"
   id="path296" />
	<path
   class="st11"
   d="m 57.3,355.1 c -2.6,0.9 -5.3,1.7 -5.9,5 -3.1,-3.2 -6.1,-6.4 -6.9,-11 2.6,0.4 4.5,-1.9 7,-2 3.4,1.6 3.2,5.8 5.8,8 z"
   id="path298" />
	<path
   class="st11"
   d="m 63.4,369.1 c 3.9,-1.1 2.7,-4.4 3,-7.1 3.2,1.5 6.7,1.4 10,2.1 0,2.3 0,4.6 0,7 -4.7,1.9 -8.9,0.3 -13,-2 z"
   id="path300" />
	<path
   class="st11"
   d="m 112.3,332.1 c 0.9,5 -1.1,9.5 -2.9,13.9 -0.5,-3.8 -3.9,-3 -6.2,-4 -0.2,-3.4 0.6,-6.6 1.3,-9.9 2.4,1.4 5.4,1.4 7.8,0 z"
   id="path302" />
	<path
   class="st11"
   d="m 107.4,298.1 c 2.2,3 2.2,6.5 2,10 l -6.3,0.9 c -2.9,-2.7 -2.7,-6.4 -2.8,-9.9 z"
   id="path304" />
	<path
   class="st11"
   d="m 49.3,308.1 c -2.5,-0.9 -5.1,-1.2 -7.8,-1 1.2,-3.6 1.2,-7.6 2.9,-11 2.3,1.5 4.8,0.9 7.3,1.1 -1.3,3.5 -0.6,7.5 -2.4,10.9 z"
   id="path306" />
	<path
   class="st11"
   d="m 48.6,313.4 c -0.1,-1.1 -0.4,-2.4 0.8,-3.2 0.1,1.1 0.3,2.3 -0.8,3.2 z"
   id="path308" />
</g><path
   class="st6"
   d="m 243.02682,154.21167 c 0,-0.65354 0.24508,-0.89861 0.81692,-0.81692 0,0.40846 -0.32677,0.81692 -0.81692,0.81692 z"
   id="path312"
   style="stroke-width:0.816923" /><path
   class="st6"
   d="m 285.42512,172.91921 c 0.49016,0 0.81693,0.32677 0.81693,0.81692 -0.73524,0.24508 -0.89862,-0.16338 -0.81693,-0.81692 z"
   id="path314"
   style="stroke-width:0.816923" /><path
   class="st6"
   d="m 177.75467,244.72674 c 0.24508,2.04231 -0.81692,3.67615 -1.55215,5.39169 -7.02554,15.93 -7.59738,32.18677 -2.45077,48.68861 0.57185,1.22538 0.73523,2.61415 0.65354,3.92123 -3.43108,-4.81985 -3.92123,-10.53831 -4.73815,-16.01169 -1.96062,-13.96938 0.49015,-28.26554 6.94384,-40.76446 0.32677,-0.49015 0.73523,-0.81692 1.14369,-1.22538 z"
   id="path316"
   style="stroke-width:0.816923" /><path
   class="st6"
   d="m 185.51544,318.98504 c 1.062,-0.16339 2.20569,0.0817 3.10431,0.73523 9.47631,5.71846 19.27938,6.12692 29.32753,1.71554 0.89862,-0.57185 2.04231,-0.81693 3.10431,-0.73523 -6.29031,5.2283 -13.806,5.55507 -21.32169,4.57476 -5.22831,-0.65353 -10.29323,-2.36907 -14.21446,-6.2903 z"
   id="path318"
   style="stroke-width:0.816923" /><path
   class="st6"
   d="m 225.87144,317.43288 c 1.38877,-2.61415 3.75784,-4.65646 6.53538,-5.71846 -1.30708,2.85923 -3.26769,5.06493 -6.53538,5.71846 z"
   id="path320"
   style="stroke-width:0.816923" /><path
   class="st6"
   d="m 176.85606,307.62981 c 2.04231,1.30707 3.51277,3.34938 4.08461,5.71846 -2.36907,-1.14369 -3.43107,-3.26769 -4.08461,-5.71846 z"
   id="path322"
   style="stroke-width:0.816923" /><path
   class="st6"
   d="m 220.9699,320.70058 c 1.14369,-1.71554 2.94092,-2.85923 4.90154,-3.2677 -0.81693,2.28739 -2.53246,3.186 -4.90154,3.2677 z"
   id="path324"
   style="stroke-width:0.816923" /><path
   class="st6"
   d="m 174.40529,302.72827 c 1.96061,1.062 2.45077,2.85923 2.45077,4.90154 -1.55216,-1.062 -2.53246,-2.94092 -2.45077,-4.90154 z"
   id="path326"
   style="stroke-width:0.816923" /><path
   class="st6"
   d="m 179.38852,241.45905 c -0.16338,1.30707 0.73523,3.1043 -1.63385,3.26769 -0.0817,-1.30708 0.49016,-2.53246 1.63385,-3.26769 z"
   id="path328"
   style="stroke-width:0.816923" /><path
   class="st6"
   d="m 234.85759,308.44673 c -0.16338,-1.47046 0.16338,-2.69584 1.63385,-3.26769 0.32677,1.38877 -0.32677,2.69585 -1.63385,3.26769 z"
   id="path330"
   style="stroke-width:0.816923" /><path
   class="st6"
   d="m 233.22374,310.08058 c 0,-1.062 0.49016,-1.71554 1.63385,-1.63385 0,1.062 -0.32677,1.79723 -1.63385,1.63385 z"
   id="path332"
   style="stroke-width:0.816923" /><path
   class="st6"
   d="m 232.40682,311.71442 c -0.24508,-0.65354 0.16339,-1.38877 0.81692,-1.63384 v 0 c 0.24508,0.65354 -0.0817,1.30707 -0.65353,1.55215 -0.0817,0.0817 -0.0817,0.0817 -0.16339,0.0817 z"
   id="path334"
   style="stroke-width:0.816923" /><path
   class="st6"
   d="m 180.94067,313.34827 c 0.73523,0.32677 1.1437,1.22538 0.89862,1.96061 -0.57185,-0.49015 -1.14369,-1.062 -0.89862,-1.96061 z"
   id="path336"
   style="stroke-width:0.816923" /><path
   class="st0"
   d="m 286.16035,173.32767 c -0.73523,0.24508 -0.89861,-0.16338 -0.81692,-0.81692 -1.87892,0.16338 -3.186,-1.30708 -4.90154,-1.63385 -2.85923,-0.40846 -3.43107,-1.87892 -2.85923,-4.81984 0.89862,-4.49308 -1.55215,-8.08754 -4.08461,-11.51862 l -1.1437,-1.14369 c -9.14953,-7.27062 -17.40045,-7.59738 -27.12184,-1.062 -0.49015,0.32677 -0.98031,0.49015 -1.47046,0.65354 0,0.49015 -0.32677,0.81692 -0.81692,0.81692 -2.85923,4.08462 -3.75785,9.31292 -7.35231,13.07077 -0.24508,1.71554 -1.22538,2.45077 -2.69585,2.36908 0.49016,9.72138 0,19.36107 -1.55215,28.91907 1.22539,0.65354 1.87892,1.96061 1.63385,3.26769 -0.40846,4.41138 0.65354,8.496 1.71554,12.66231 3.92123,1.14369 7.84246,2.28738 12.09046,1.14369 1.38876,-0.16339 2.77753,0.40846 3.59446,1.47046 4.00292,4.98323 8.82276,4.32969 13.80599,1.96062 0.73524,-0.32677 1.38877,-0.81693 2.28739,-0.49016 -0.24508,-1.22538 0.81692,-1.63384 1.47046,-2.20569 4.08462,-3.83954 4.73815,-8.496 4.00292,-13.72431 -0.40846,-2.94092 -1.71553,-6.12692 1.1437,-8.65938 0.65353,-1.38877 2.124,-1.55215 3.34938,-1.96062 11.11015,-3.75784 12.98908,-7.27061 9.72138,-18.29907 z"
   id="sebaceous_gland"
   style="stroke-width:0.816923" />
<path
   style="fill:none;stroke:#000000;stroke-width:1px;stroke-linecap:butt;stroke-linejoin:miter;stroke-opacity:1"
   d="m 312.46527,219.48382 55.27786,0.35356"
   id="path1305" /><text
   xml:space="preserve"
   style="font-size:16px;line-height:1.25;font-family:sans-serif"
   x="367.74313"
   y="219.83737"
   id="text4433"><tspan
     sodipodi:role="line"
     id="tspan4431"
     x="367.74313"
     y="219.83737">arrector muscle of hair</tspan></text><path
   style="fill:none;stroke:#000000;stroke-width:1px;stroke-linecap:butt;stroke-linejoin:miter;stroke-opacity:1"
   d="M 275.0502,154.86521 350.76411,97.696044"
   id="path4800" /><text
   xml:space="preserve"
   style="font-size:16px;line-height:1.25;font-family:sans-serif"
   x="350.7641"
   y="97.696045"
   id="text8180"><tspan
     sodipodi:role="line"
     id="tspan8178"
     x="350.7641"
     y="97.696045"
     style="font-size:18.6667px">Sebaceous Gland</tspan><tspan
     sodipodi:role="line"
     x="350.7641"
     y="118.59651"
     id="tspan10612">sebum secreting cell</tspan></text><path
   style="fill:none;stroke:#000000;stroke-width:1px;stroke-linecap:butt;stroke-linejoin:miter;stroke-opacity:1"
   d="M 168.02543,260.4247 131.53654,204.22004"
   id="path15853"
   sodipodi:nodetypes="cc" /><text
   xml:space="preserve"
   style="font-size:16px;line-height:1.25;font-family:sans-serif"
   x="8.0981121"
   y="179.25082"
   id="text16737"><tspan
     sodipodi:role="line"
     id="tspan16735"
     x="8.0981121"
     y="179.25082"
     style="font-size:18.6667px">Hair Follicle</tspan><tspan
     sodipodi:role="line"
     x="8.0981121"
     y="200.15128"
     id="tspan18107">keratinocyte stem cell</tspan></text></svg>
