<?xml version="1.0" encoding="UTF-8" standalone="no"?>
<!-- Generator: Adobe Illustrator 24.3.0, SVG Export Plug-In . SVG Version: 6.00 Build 0)  -->

<svg
   version="1.1"
   id="Layer_1"
   x="0px"
   y="0px"
   viewBox="0 0 419.5 297.6"
   style="enable-background:new 0 0 419.5 297.6;"
   xml:space="preserve"
   sodipodi:docname="skin-hair_follicle.svg"
   inkscape:version="1.1 (c68e22c387, 2021-05-23)"
   xmlns:inkscape="http://www.inkscape.org/namespaces/inkscape"
   xmlns:sodipodi="http://sodipodi.sourceforge.net/DTD/sodipodi-0.dtd"
   xmlns="http://www.w3.org/2000/svg"
   xmlns:svg="http://www.w3.org/2000/svg"><defs
   id="defs197" />
<style
   type="text/css"
   id="style2">
	.st0{fill:#F0DDB6;}
	.st1{fill:#723D20;}
	.st2{fill:#D95E4A;}
	.st3{fill:#E790A2;}
	.st4{fill:#FBAA5D;}
	.st5{fill:#F2CE59;}
	.st6{fill:#6F5993;}
	.st7{fill:#BC6461;}
	.st8{fill:#E1EDFE;}
	.st9{fill:#7AB481;}
	.st10{fill:#73CDB4;}
	.st11{fill:#76C2AF;}
	.st12{fill:none;stroke:#000000;stroke-width:0.75;stroke-miterlimit:3;}
	.st13{font-family:'Helvetica';}
	.st14{font-size:12px;}
	.st15{font-size:14px;}
</style>
<sodipodi:namedview
   bordercolor="#666666"
   borderopacity="1.0"
   id="namedview341"
   inkscape:current-layer="Layer_1"
   inkscape:cx="130.25615"
   inkscape:cy="183.10768"
   inkscape:document-units="mm"
   inkscape:pagecheckerboard="0"
   inkscape:pageopacity="0.0"
   inkscape:pageshadow="2"
   inkscape:window-height="706"
   inkscape:window-maximized="1"
   inkscape:window-width="1366"
   inkscape:window-x="-8"
   inkscape:window-y="-8"
   inkscape:zoom="1.2014788"
   pagecolor="#ffffff"
   showgrid="false"
   units="mm">
	</sodipodi:namedview>
<path
   id="path4"
   class="st0"
   d="M151.1,103.9c3.8,0.4,7.4,2.1,11.3,1.9c-5,15.2-8.3,30.9-9.8,46.7c-0.7,8.5-2,17-3.2,25.4  c-1.5,9.8-5,19.2-6.1,29.1c-0.7,6.1,0.2,11.8,3.4,17c3.9,6.4,10.5,7.2,16.1,2.3c2.3-2,3.9-4.5,4.6-7.4c1-4.2,1.2-8.5,0.3-12.7  c-2.8-14.3-5.6-28.6-5.9-43.2c-0.4-19.2,1.7-38.2,7-56.7c3.3-0.6,6.6-1.3,9.8-2.4c-1.6,5-3.2,10-4.7,15c-0.6,2-1.1,4.1-0.4,6.2  c0.2,1,1,1.8,2.1,2c1.3,0.2,2.1-0.4,2.3-1.8l0,0c2.7-2.8,3.4-6.7,5.5-9.8l0,0c0.4,0,0.6-0.2,0.6-0.6l0,0c0.4-0.1,0.7-0.2,1.1-0.5  c7.3-4.9,13.5-4.7,20.3,0.8l0.9,0.9c1.9,2.6,3.7,5.3,3.1,8.6c-0.4,2.2,0,3.3,2.1,3.6c1.3,0.2,2.3,1.3,3.7,1.2l0,0  c-0.1,0.5,0.1,0.8,0.6,0.6l0,0c2.5,8.3,1,10.9-7.2,13.8c-0.9,0.3-2,0.4-2.5,1.5l0,0c-2.1,1.9-1.2,4.3-0.9,6.5  c0.6,3.9,0.1,7.4-3,10.3c-0.5,0.4-1.3,0.7-1.1,1.7l0,0c-0.7-0.2-1.2,0.1-1.7,0.4c-3.7,1.8-7.4,2.3-10.4-1.5  c-0.6-0.8-1.7-1.2-2.7-1.1c-3.2,0.9-6.1,0-9.1-0.9l0,0c-0.8-3.1-1.6-6.2-1.3-9.5c0.2-1.2-0.5-2.3-1.7-2.6c-1.1-0.3-1.9,0.6-2.5,1.4  c-1.6,2.1-2.5,4.7-2.6,7.4c-0.2,5.6,1.1,10.8,2.9,16.1c-0.7,0.1-1.3,0.1-1.7,0.8c-2.8-0.6-3.6,0.9-3,3.2c0.4,1.5,0.2,3,0.6,4.5  c0.6,2.7,0,5.7,1.8,8.1c-1.1,1.6-0.1,2.9,0.5,4.3c0.1,2.1-0.1,4.4,1.7,6.1c-0.9,1.5-0.6,2.9,0.3,4.3c-0.4,2.1,0.4,4.1,0.7,6.1  c-0.1,1.2-0.1,2.5-0.1,3.7c-0.4,2-0.9,4-0.8,6.1c-0.7,0.3-1.2,1-1.1,1.8c-0.9,0.8-1,2.1-1.7,3.1c-3.1,4.5-7.8,7.6-13.1,8.6  c-0.2,0-0.3,0-0.5,0.1c-2-0.5-4.2-0.4-6.1-1.3c-2.1-1-3.9-2.6-5.6-4.2c-1.6-1.3-1.5-3.9-3.6-5c0.2-1-0.1-2.1-0.7-3.1  c-1-2.1-0.3-4.8-2-6.7c0.9-0.9,0.4-1.9,0.4-3c-0.1-2.6,0.3-5.2,0.5-7.8c0.7-0.6,0.6-1.3,0.5-2v-1.2c1-2.1,0.6-4.5,1.5-6.7l0.4-1.3  c1.3-5,2.5-10,3.9-14.9c0.9-3.4,0.4-4-3.2-3.8l-1.2-0.3c0.7-2.3,1.5-4.5,1.8-7c1-8,2.1-16.1,3.4-24  C147.8,129.4,151.5,116.9,151.1,103.9L151.1,103.9z" />
<path
   id="path6"
   class="st1"
   d="M167.7,106.4c-5.4,18.6-7.4,37.4-7,56.7c0.3,14.6,3.1,28.9,5.9,43.2c0.9,4.2,0.8,8.6-0.3,12.7  c-0.7,2.9-2.3,5.5-4.6,7.4c-5.7,4.8-12.3,4-16.1-2.3c-3.2-5.2-4.1-11-3.4-17c1.2-9.9,4.6-19.3,6.1-29.1c1.3-8.5,2.5-16.9,3.3-25.4  c1.5-15.9,4.8-31.6,9.8-46.7c9.5-27.3,24.3-51.7,41.9-74.3c5-6.4,10.2-12.7,16.5-18.1c1-1,2.3-1.8,3.7-2.1c-0.6,1.7-1.7,3.2-3,4.4  c-24.8,25.2-42.9,56.1-52.9,90.1C167.6,106,167.6,106.2,167.7,106.4L167.7,106.4z" />
<path
   id="arrector_pili_muscle"
   class="st2"
   d="M230.7,132.1l1.8-1.8c0.6-0.1,1.2,0,1-0.9l0.1-0.1c0.5,0.1,0.7-0.1,0.5-0.6l0.1-0.1  c0.5,0.1,0.7-0.1,0.6-0.6l0.1-0.1c0.5,0.1,0.7-0.1,0.6-0.6l0.1-0.1c0.5,0.1,0.7-0.1,0.6-0.6l0.1-0.1c0.5,0.1,0.7-0.1,0.6-0.6v0.2  v-0.2c0.4,0.1,0.7-0.2,0.6-0.6l0.1,0.2l-0.1-0.2c0.4,0.1,0.7-0.2,0.7-0.6v0.1c0.3,0,0.6-0.2,0.6-0.5c0-0.1,0-0.1,0-0.1v0.1  c0.3,0.1,0.6-0.2,0.7-0.6v-0.1h-0.1c1,0.2,1.3-0.2,1.3-1.2v0.1l0.7-0.7l-0.1,0.1l0.7-0.7l-0.1,0.1l0.7-0.7l0.5-0.5  c0.6,0,1.2,0,1.1-0.9h0.1c0.5,0.1,0.7-0.1,0.6-0.6l0,0c0.3,0.1,0.6-0.1,0.7-0.4c0-0.1,0-0.1,0-0.2v0.1c0.3,0.1,0.6-0.2,0.7-0.6v-0.1  h-0.1c1.3,0.2,1.9-0.5,2-1.8l0,0c0.6,0,1.1-0.1,1.2-0.8h-0.1c1,0.2,1.8,0.1,1.7-1.3h0.2c0.4,0.1,0.7-0.1,0.9-0.5  c1.6-0.9,2.4-2.8,4.2-3.5c1,0.7,1.1,1.8,1.3,2.9c0.7,2.9,0.5,6,1.8,8.8c-0.1,0.2-0.1,0.4-0.2,0.6c-3.1,4.6-5.8,9.4-7.2,14.8V137  c-0.4,0.1-0.6,0.4-0.4,0.7l-0.1,0.1c-2.3,0.7-2.5,2.8-2.7,4.7l0,0c-2.1,0.7-2.4,2.5-2.5,4.3l0,0c-1.5,0.2-1.9,1.2-1.6,2.6h-0.1  c-1.7,0.4-2,1.6-1.8,3h-0.2h0.2c-1.2,0.1-1.5,0.8-1.2,1.8h-0.1c-1.2,0.1-1.5,0.7-1.2,1.8h-0.1c-1.2,0.1-1.5,0.7-1.2,1.8h-0.1  c-1.2,0.1-1.5,0.7-1.2,1.8l0,0c-1.7,0.3-2.1,1.4-2,2.9l0,0c-1.3-0.1-1.3,0.9-1.3,1.8l0,0c-1.7,0.1-2,1.1-1.8,2.5l0,0  c-1.9,0.2-2.6,1.3-2.5,3.1l0,0c-2.8,1.2-4.9,3.7-5.6,6.7l-0.5,0.6l-0.7,0.7h0.1c-3,1.3-5.5,3.7-6.7,6.7v-0.1l-0.7,0.6l0.1-0.1  l-0.7,0.6h0.1c-3,0.4-4.7,2.5-6.1,4.9l0,0c-1.1,0-2.2-0.1-2.3,1.4h-0.1c-0.6-0.2-1.2-0.2-1.1,0.7l-0.1,0.1c-1.5-0.3-2.6,0.2-3.1,1.7  l0,0c-0.6-0.1-1.1-0.1-1.2,0.7h-0.1c-0.6-0.2-1.2-0.2-1.2,0.6H200c-0.6-0.2-1.1-0.3-1.1,0.6h-0.1c-0.6-0.2-1.1-0.3-1.1,0.6h-0.1  c-0.6-0.2-1.1-0.3-1.1,0.6h-0.1c-0.6-0.2-1.1-0.3-1.1,0.6h-0.1c-0.6-0.2-1.1-0.2-1.2,0.6V199c-0.7-0.1-1.5-0.5-1.8,0.7H192  c-3.8-0.5-5.5-1.9-6.5-5.3l0,0c0.4,0,0.7-0.2,0.5-0.6l0.1-0.1c0.5,0.1,0.7-0.1,0.5-0.6l0.1-0.2c1.4,0.2,1.5-0.6,1.2-1.7h0.1  c1.2-0.1,1.5-0.7,1.2-1.8h0.1c1.2-0.1,1.5-0.7,1.2-1.8l0.1,0.2l-0.1-0.2c1.2-0.1,1.6-0.7,1.2-1.8l0.1-0.1c1.2-0.1,1.6-0.7,1.1-1.8  l0.1-0.1c0.9,0.1,0.9-0.5,0.7-1.1l0.1,0.2l0.1-0.1c1.2-0.2,1.5-0.8,1.2-1.9l0.1,0.2l-0.1-0.2c1.2-0.1,1.6-0.7,1.1-1.8l0.1-0.1  c1.8-0.3,2-1.5,1.9-3l0.2,0.1l-0.2-0.1c1.2-0.1,1.5-0.7,1.2-1.8h0.1c1.2-0.1,1.6-0.7,1.1-1.8l0.1-0.1c0.9,0.1,0.9-0.5,0.7-1.1  l0.1,0.2l-0.1-0.2c1.1-0.2,1.5-0.8,1.2-1.9h0.2h-0.2c1.2-0.1,1.5-0.7,1.2-1.8l0.1,0.1l-0.1-0.1c1.2-0.1,1.7-0.7,1.1-1.8l0.1-0.1  c1.3,0.1,1.7-0.6,1.1-1.7l0.1-0.2c1.4,0.1,1.7-0.6,1.1-1.7l0.1-0.2c1.4,0.1,1.6-0.5,1.1-1.7l0.1-0.2c1.4,0.1,1.6-0.6,1.1-1.7  l0.1-0.2c1.3,0.1,1.6-0.6,1.2-1.7l0.1-0.1c1.3,0.1,1.5-0.7,1.2-1.8l0.1,0.2v-0.2c1.3-0.3,2.3-0.9,1.7-2.5l0.1-0.1  c0.9,0.1,0.8-0.5,0.8-1l-0.1,0.1c0.6-0.1,0.7-0.5,0.7-1c0.7-0.4,1.2-1.2,1.3-2c0.5-0.1,1-0.2,0.7-0.9l0.1-0.1c0.9,0.2,0.8-0.4,0.8-1  v0.1l0.6-0.7l-0.1,0.1c0.4-0.1,0.6-0.2,0.6-0.7v-0.1c0.5,0.1,0.7-0.1,0.5-0.6c0-0.1,0.1-0.1,0.1-0.2c0.9,0.2,0.8-0.4,0.8-1v0.1  c0.4-0.1,0.6-0.4,0.6-0.7l-0.1,0.1c0.4-0.1,0.6-0.2,0.6-0.7h0.2l-0.2-0.1c0.4,0.1,0.7-0.1,0.6-0.6l0.1-0.1c0.8,0.1,0.9-0.4,0.9-1  v0.1l0.6-0.7l-0.1,0.1c0.2-0.2,0.4-0.4,0.6-0.7l-0.1,0.1l0.6-0.7l-0.1,0.1c0.4,0,0.6-0.3,0.6-0.7l-0.1-0.1c0.3,0,0.6-0.2,0.6-0.6  c0-0.1,0-0.1,0-0.2l0.1,0.2l-0.2-0.2c0.4,0,0.7-0.2,0.6-0.6l0.2,0.2l-0.2-0.1c0.4,0,0.7-0.2,0.6-0.6l0.2,0.1l-0.2-0.2  c0.5,0.1,0.7-0.1,0.6-0.6l0.1-0.1c0.5,0.1,0.7-0.1,0.6-0.6l0.1-0.1c0.5,0.1,0.7-0.1,0.6-0.6l0.1-0.1c0.5,0.1,0.7-0.1,0.6-0.6  l0.1-0.1C230.6,133.2,230.6,132.6,230.7,132.1L230.7,132.1z" />
<path
   id="hair_follicle"
   class="st3"
   d="M205.2,116.2l-0.9-0.9c0.4-1.6-0.9-2.1-1.9-2.8c-4.4-2.6-9.1-3.4-14-1.6  c-2.2,0.8-4.7,1.3-5.6,4l0,0c-0.5-0.1-0.7,0.2-0.6,0.6l0,0c-3.6,2.3-4.2,6.2-5.5,9.8l0,0c-2.9,0.9-3.9,0.2-3.7-2.8  c0.1-0.5,0.1-1,0.2-1.5c1.6-7,3.7-13.8,7-20.3l0,0l3.2-1.2c-4.4,6.6-6,14.1-8.3,21.8c1.4-0.7,1.4-1.7,1.7-2.4  c3.2-7.3,9-10.8,16.9-10.8c7.7,0.1,13.5,3.7,16.2,10.8c1.5,3.8,2.7,7,6.1,9.9c5.2,4.4,2.7,13.2-3.7,16.5c-1.8,1-4.6,0.6-5.6,2.7  c-0.9,1.8,0.2,4,0.4,6c0.6,8.8-8.2,16.1-16.7,14c-0.4-0.1-0.8-0.2-1.1-0.4c-2.7-2.6-5.9-2.9-9.6-2.9c-4.4-0.1-6.9-2.9-7.7-7.3  c-0.1-0.7-0.4-1.3-0.7-2.7c-0.9,5.4-0.2,10.9,1.7,16c3.4,9,6.2,18.2,8.9,27.4c1.3,1.4,3.6,2.1,3.9,4.4l0,0l-0.6,0.6v-0.1  c-0.6,0.2-0.8,0.7-0.6,1.2l0,0c-0.4,0-0.7,0.2-0.6,0.6l0,0c-0.5,0.1-0.6,0.6-0.6,0.9c0.2,5.8,0.7,11.5-0.9,17.2  c-2.8,9.5-8.7,16.4-17.4,20.9c-0.7,0.1-1.5,0-2.1,0.3c-5.6,2.9-11.4,2.7-17.5,1.3c-2.2-0.6-3.4-2.6-5.6-2.6  c-10.5-7.6-14.2-18.6-15.3-30.9c-1.3-13.8,3.9-26,10.3-37.7c2.1-3.7,3.3-7.8,3.7-12.1c1.4-13.1,3.7-26.1,6.4-39  c1.3-6.2,1.8-12.5,1.7-18.7c-0.1-2.5-1.7-3.6-3.2-4.8c1.5-0.2,2.9,0.2,4.4,0.6l0,0c0.2,1.2,0.6,2.4,0.7,3.6  c0.6,6.8-0.2,13.6-1.6,20.2c-2.5,11.8-4.5,23.6-5.9,35.6c-0.8,6.1-1.5,12.1-5.2,17.3c-0.9,1.2-1.7,2.6-1.6,4.2l0,0  c-0.8,0.6-1.3,1.5-1.2,2.5l0,0c-0.3,0.2-0.6,0.6-0.7,0.9c-4.9,9.4-6.7,20.1-5.2,30.6c0.6,4.1,1,8.5,3.6,12l0,0  c-0.1,1.5,0.6,2.9,1.8,3.7l0,0c0.5,1.8,1.2,3.4,3.1,4.3l0,0c-0.2,0.7,0.2,1.1,0.7,1.5l2.8,2.7c2.9,2.9,6.7,4.2,10.6,4.7  c5.6,0.7,11.3,0.5,16-3.4l0,0c1.7-0.1,3.1-0.7,3.7-2.5l0,0c2.5-0.6,3.9-2.1,4.9-4.3l0,0c0.5-0.1,0.8-0.6,0.7-1.1  c0-0.1,0-0.1-0.1-0.1l0,0c0.9,0.1,1.2-0.5,1.2-1.2l0,0c0.9-0.4,1.5-1.5,1.2-2.5l0,0c1.7-0.9,2-2.8,2.5-4.4c2.8-8.1,2-16.2,0.3-24.3  c-2.3-10.8-6.3-21-9.6-31.4c-1.6-5-2-10.2-0.5-15.3c0.4-1.5,1.3-3.6,3.1-3.3c1.7,0.4,1,2.6,1.2,4c0.1,2.4-0.6,5,1.9,6.7l0,0  c1.5,2.5,4,2,6.3,1.9c2.3-0.1,4.2,0.2,6,2c2.8,2.8,8.3,2.2,11.5-0.9l0,0c3.1-1.1,4.4-3.6,5-6.6c0.7-3.9-0.4-7.8,0-11.8l0,0  c3.1-0.2,6.1-1.3,8.6-3.1c3.9-2.9,4.4-8.9,1.1-12.1l0,0c0-0.4-0.2-0.6-0.6-0.6l0,0c-0.1-0.2-0.2-0.7-0.5-0.7  c-3.7-1.1-4.8-3.5-4.7-7.4C209,119.6,208.4,116.7,205.2,116.2L205.2,116.2z" />
<path
   id="path12"
   class="st4"
   d="M140.1,243c2.3,0,3.4,2.1,5.6,2.6c6,1.5,11.8,1.6,17.5-1.3c0.6-0.3,1.4-0.2,2.1-0.3  c3.2,2.3,2.7,5.8,3.4,9c0.1,0.2-0.3,0.6-0.2,0.9c0.4,2.1,1.7,4.6-0.9,6c-1.8,1-4,1.5-6.1,1.3c-0.3-0.1-0.6,0.4-0.9,0.6  c-5.1,0.8-10.2,1.7-15.4,0.6c-1.8-0.4-3.7-1.2-5.5-1.3c-1.5-0.1-2.8-0.9-2.5-2c0.9-3.2-2.5-6.7,0.6-9.8c0.6-0.6-1.1-1.2-0.6-2.3  C137.7,245.5,138.3,243.8,140.1,243L140.1,243z" />
<path
   id="path14"
   class="st5"
   d="M145,262.5c5.2,1,10.3,0.2,15.4-0.6c0.9,1.2,1.7,2.4,0.2,3.7c-0.7,0.6-0.2,1.3-0.2,1.9  c-0.1,3.1-2,5.8-3.6,8c-1,1.5-5,1-7.6,0.7c-0.5-0.1-0.9-0.4-1.2-0.9c-1.2-3.6-3.7-6.6-4.4-10.3C143.5,263.9,143.7,262.9,145,262.5  L145,262.5z" />
<path
   id="path16"
   class="st6"
   d="M134.5,181.1c-0.1-1.7,0.7-3,1.6-4.2c3.7-5.2,4.4-11.2,5.1-17.3c1.5-11.9,3.4-23.8,5.9-35.6  c1.4-6.6,2.2-13.4,1.6-20.2c-0.1-1.2-0.4-2.4-0.7-3.6c2.1,0.4,1.4,2.4,2,3.6c0.4,13.1-3.3,25.5-5.3,38.2c-1.2,8-2.3,16-3.4,24  c-0.3,2.5-1.1,4.7-1.8,7C138,175.8,136.7,178.8,134.5,181.1L134.5,181.1z" />
<path
   id="path18"
   class="st3"
   d="M266.4,110.7l-4.5,6.8c-0.9-0.6-1-1.7-1.3-2.6c-0.8-2.4-0.6-5-1.8-7.3c1.2-1.6,2.8-2.7,4.4-3.9  C263,106.6,263.7,109.1,266.4,110.7L266.4,110.7z" />
<path
   id="path20"
   class="st0"
   d="M266.4,110.7c-2.8-1.5-3.4-4-3.2-7L268,99c1,0.9-0.2,1.7,0,2.5c0.4,1.5-0.2,3.7,2.5,3.6  C269.6,107.3,268,109,266.4,110.7L266.4,110.7z" />
<path
   id="path22"
   class="st6"
   d="M221.2,97.9c-11.2,0.9-22.4,0.9-33.6-0.1C198.8,97.6,210,98,221.2,97.9z" />
<path
   id="path24"
   class="st7"
   d="M258.8,107.6c1.3,2.3,1,4.9,1.8,7.3c0.3,1,0.4,2,1.3,2.6c-1.4,1.2-1.4,3.3-3.1,4.3  c-1.3-2.8-1.1-5.9-1.8-8.8c-0.3-1.1-0.4-2.2-1.3-2.9L258.8,107.6z" />
<path
   id="path26"
   class="st6"
   d="M180.4,100.8c-3.4,6.4-5.5,13.2-7,20.3c-0.1,0.5-0.2,1-0.2,1.5c-0.2,3,0.7,3.7,3.7,2.8  c-0.2,1.4-1,2-2.3,1.8c-1-0.2-1.8-1-2.1-2c-0.7-2.1-0.2-4.2,0.4-6.2c1.5-5,3.1-10,4.7-15C178.6,103.1,178.5,101,180.4,100.8  L180.4,100.8z" />
<path
   id="path28"
   class="st6"
   d="M107.9,98.9H137v0.6h-29.1L107.9,98.9z" />
<path
   id="path30"
   class="st7"
   d="M186,202.6c-0.3-2.3-2.5-3-3.9-4.4l3.6-3.7c1,3.4,2.7,4.8,6.5,5.3  C190.1,200.6,188.3,202.1,186,202.6L186,202.6z" />
<path
   id="path32"
   class="st8"
   d="M270.6,105.2c-2.7,0.1-2.2-2.1-2.5-3.6c-0.2-0.9,1-1.7,0-2.5c0.9-1.5,2.3-2.6,3.9-3.2  c-1.8,2.6-0.8,4.5,0.1,6.4C272.7,103.7,271.5,104.4,270.6,105.2z" />
<path
   id="path34"
   class="st7"
   d="M251.5,137.1c1.5-5.4,4.2-10.2,7.2-14.8C257.1,127.7,254.4,132.4,251.5,137.1z" />
<path
   id="path36"
   class="st7"
   d="M216.6,184.9c1.3-3,3.7-5.5,6.7-6.7C221.5,180.7,219.2,183,216.6,184.9z" />
<path
   id="path38"
   class="st7"
   d="M224.5,176.9c0.7-3,2.8-5.5,5.6-6.7C228.7,172.8,226.6,174.8,224.5,176.9z" />
<path
   id="path40"
   class="st7"
   d="M209.2,191c1.4-2.4,3.1-4.5,6.1-4.9C213.6,188,211.9,190,209.2,191z" />
<path
   id="path42"
   class="st6"
   d="M183.6,99.7l-3.2,1.2c0.8-2.2,2.6-2.4,5-2.5L183.6,99.7z" />
<path
   id="path44"
   class="st6"
   d="M148,100.3c-1.5-0.4-2.9-0.9-4.4-0.6l-1.1-0.2v0.1C144.4,99.5,146.7,97,148,100.3z" />
<path
   id="path46"
   class="st7"
   d="M248.4,142.6c0.2-1.9,0.4-3.9,2.7-4.7C250.5,139.6,249.8,141.3,248.4,142.6z" />
<path
   id="path48"
   class="st7"
   d="M246,146.9c0.1-1.8,0.4-3.6,2.5-4.3C248,144.2,247.2,145.7,246,146.9z" />
<path
   id="path50"
   class="st7"
   d="M230.1,170.2c-0.2-1.8,0.6-2.9,2.5-3.1C232,168.3,231.2,169.4,230.1,170.2z" />
<path
   id="path52"
   class="st7"
   d="M235.6,162.8c-0.2-1.5,0.3-2.6,2-2.9C237.3,161.1,236.6,162.1,235.6,162.8z" />
<path
   id="path54"
   class="st7"
   d="M202.6,194.8c0.5-1.5,1.6-2,3.1-1.7C204.9,194,203.8,194.5,202.6,194.8z" />
<path
   id="path56"
   class="st7"
   d="M198,176.1c0.1,1.4-0.1,2.7-1.9,3C196.4,177.8,197,176.8,198,176.1z" />
<path
   id="path58"
   class="st7"
   d="M242.5,152.5c-0.1-1.5,0.2-2.7,1.8-3C244.1,150.7,243.4,151.7,242.5,152.5z" />
<path
   id="path60"
   class="st7"
   d="M244.4,149.5c-0.3-1.4,0.1-2.3,1.6-2.6C245.8,147.9,245.3,148.8,244.4,149.5z" />
<path
   id="path62"
   class="st7"
   d="M232.5,167.1c-0.1-1.4,0.2-2.5,1.8-2.5C234,165.6,233.4,166.5,232.5,167.1z" />
<path
   id="path64"
   class="st7"
   d="M247.8,116.1c0,1.3-0.6,2-2,1.8C246.2,117.1,246.9,116.5,247.8,116.1z" />
<path
   id="path66"
   class="st7"
   d="M213.8,152.2c0.6,1.6-0.4,2.1-1.7,2.5C212.4,153.6,213,152.8,213.8,152.2z" />
<path
   id="path68"
   class="st7"
   d="M207,192.4c0.1-1.5,1.2-1.5,2.3-1.4C208.7,191.7,207.9,192.2,207,192.4z" />
<path
   id="path70"
   class="st7"
   d="M191.8,185.8c0.4,1.1,0.1,1.7-1.2,1.8C190.7,186.9,191.2,186.2,191.8,185.8z" />
<path
   id="path72"
   class="st7"
   d="M240.1,156.2c-0.4-1.1-0.1-1.7,1.2-1.8C241.2,155.1,240.8,155.8,240.1,156.2z" />
<path
   id="path74"
   class="st7"
   d="M196,179.1c0.5,1.1,0.1,1.7-1.1,1.8C195,180.2,195.4,179.5,196,179.1z" />
<path
   id="path76"
   class="st7"
   d="M205.7,163.8c0.6,1.2,0.2,1.8-1.1,1.7L205.7,163.8z" />
<path
   id="path78"
   class="st7"
   d="M234.3,164.6c-0.1-0.9-0.1-1.8,1.3-1.8C235.5,163.6,235,164.2,234.3,164.6z" />
<path
   id="path80"
   class="st7"
   d="M189.4,189.5c0.4,1.1,0,1.8-1.2,1.8C188.3,190.6,188.8,189.9,189.4,189.5z" />
<path
   id="path82"
   class="st7"
   d="M209.4,158.3c0.5,1.1,0.3,1.8-1.1,1.7L209.4,158.3z" />
<path
   id="path84"
   class="st7"
   d="M188.1,191.3c0.4,1.1,0.2,1.8-1.2,1.7C187.3,192.4,187.7,191.9,188.1,191.3z" />
<path
   id="path86"
   class="st7"
   d="M237.7,159.9c-0.3-1.1,0-1.8,1.2-1.8C238.8,158.8,238.3,159.5,237.7,159.9z" />
<path
   id="path88"
   class="st7"
   d="M212,154.6c0.3,1.1,0.1,1.8-1.2,1.8C211,155.6,211.4,155,212,154.6z" />
<path
   id="path90"
   class="st7"
   d="M250.5,114.1c0.2,1.4-0.6,1.5-1.7,1.3C249.2,114.7,249.8,114.3,250.5,114.1z" />
<path
   id="path92"
   class="st7"
   d="M210.7,156.5c0.4,1.1,0.2,1.8-1.2,1.7L210.7,156.5z" />
<path
   id="path94"
   class="st7"
   d="M207,162c0.6,1.2,0.3,1.8-1.1,1.7L207,162z" />
<path
   id="path96"
   class="st7"
   d="M241.3,154.4c-0.4-1.1,0-1.7,1.2-1.8C242.4,153.3,241.9,154,241.3,154.4z" />
<path
   id="path98"
   class="st7"
   d="M200.3,172.3c0.6,1.2,0.1,1.7-1.1,1.8C199.2,173.4,199.7,172.8,200.3,172.3z" />
<path
   id="path100"
   class="st7"
   d="M202.2,169.3c0.3,1.1-0.1,1.7-1.2,1.9C201.1,170.4,201.6,169.7,202.2,169.3z" />
<path
   id="path102"
   class="st7"
   d="M203.4,167.4c0.4,1.1,0,1.7-1.2,1.8C202.4,168.5,202.8,167.9,203.4,167.4z" />
<path
   id="path104"
   class="st7"
   d="M199.1,174.2c0.4,1.1,0,1.7-1.2,1.8C198.1,175.3,198.5,174.6,199.1,174.2z" />
<path
   id="path106"
   class="st7"
   d="M190.6,187.7c0.4,1.1,0,1.7-1.2,1.8C189.6,188.8,190,188.1,190.6,187.7z" />
<path
   id="path108"
   class="st7"
   d="M204.6,165.7c0.6,1.2,0.1,1.7-1.1,1.8C203.6,166.8,204,166.1,204.6,165.7z" />
<path
   id="path110"
   class="st7"
   d="M208.2,160.1c0.5,1.2,0.3,1.8-1.1,1.7C207.5,161.2,207.8,160.7,208.2,160.1z" />
<path
   id="path112"
   class="st7"
   d="M194.9,180.9c0.4,1.1-0.1,1.7-1.2,1.9C193.9,182.1,194.3,181.3,194.9,180.9z" />
<path
   id="path114"
   class="st7"
   d="M238.9,158.1c-0.4-1.1-0.1-1.8,1.2-1.8C240,157,239.6,157.6,238.9,158.1z" />
<path
   id="path116"
   class="st7"
   d="M192.9,184c0.5,1.2,0.1,1.7-1.1,1.8C192,185.1,192.3,184.4,192.9,184z" />
<path
   id="path118"
   class="st7"
   d="M240.4,122.8c0.1,1-0.3,1.3-1.3,1.2C239.3,123.4,239.7,122.9,240.4,122.8z" />
<path
   id="path120"
   class="st7"
   d="M192.3,199.7c0.2-1.2,1-0.8,1.8-0.7C193.6,199.7,192.9,199.6,192.3,199.7z" />
<path
   id="path122"
   class="st7"
   d="M220.7,143c0,0.6,0.1,1.2-0.8,1L220.7,143z" />
<path
   id="path124"
   class="st7"
   d="M193.7,182.8c0.1,0.6,0.2,1.2-0.7,1.1C193.2,183.5,193.5,183.2,193.7,182.8z" />
<path
   id="path126"
   class="st7"
   d="M205.8,193c0-0.9,0.5-0.9,1.1-0.7C206.5,192.6,206.2,192.9,205.8,193z" />
<path
   id="path128"
   class="st6"
   d="M138.8,99.1l-0.7,0.2c-0.4-0.1-0.9-0.1-0.5-0.6C138,98.2,138.6,98.6,138.8,99.1L138.8,99.1z" />
<path
   id="path130"
   class="st7"
   d="M200.3,196.1c0-0.9,0.6-0.9,1.2-0.6L200.3,196.1z" />
<path
   id="path132"
   class="st7"
   d="M199.1,196.7c-0.1-0.9,0.5-0.9,1.1-0.6L199.1,196.7z" />
<path
   id="path134"
   class="st7"
   d="M197.9,197.3c-0.1-0.9,0.5-0.9,1.1-0.6L197.9,197.3z" />
<path
   id="path136"
   class="st7"
   d="M196.7,197.9c0-0.9,0.5-0.9,1.1-0.6C197.3,197.6,197,197.8,196.7,197.9z" />
<path
   id="path138"
   class="st7"
   d="M218.3,146.1c0,0.6,0.1,1.2-0.8,1L218.3,146.1z" />
<path
   id="path140"
   class="st7"
   d="M194,199.1c0.1-0.8,0.6-0.8,1.2-0.6L194,199.1z" />
<path
   id="path142"
   class="st7"
   d="M214.6,151c0,0.6,0.1,1.2-0.8,1L214.6,151z" />
<path
   id="path144"
   class="st7"
   d="M248.9,115.4c-0.1,0.7-0.6,0.8-1.2,0.8C248,115.7,248.4,115.4,248.9,115.4z" />
<path
   id="path146"
   class="st7"
   d="M215.4,150.1c-0.1,0.5-0.2,0.9-0.7,1C214.7,150.6,214.8,150.2,215.4,150.1z" />
<path
   id="path148"
   class="st7"
   d="M201.1,171.2c0.1,0.6,0.2,1.2-0.7,1.1C200.6,171.9,200.8,171.5,201.1,171.2z" />
<path
   id="path150"
   class="st7"
   d="M223.3,140c0,0.6,0,1.1-0.9,1L223.3,140z" />
<path
   id="path152"
   class="st7"
   d="M201.4,195.4c0.1-0.8,0.6-0.8,1.2-0.7L201.4,195.4z" />
<path
   id="path154"
   class="st7"
   d="M217.4,147.2c0.3,0.7-0.2,0.8-0.7,0.9L217.4,147.2z" />
<path
   id="path156"
   class="st7"
   d="M230.7,132.1c-0.1,0.6-0.1,1.2-0.9,1C230.1,132.8,230.4,132.4,230.7,132.1z" />
<path
   id="path158"
   class="st7"
   d="M243.8,119.6c0.1,0.9-0.5,0.9-1.1,0.9L243.8,119.6z" />
<path
   id="path160"
   class="st7"
   d="M184.7,204.4c-0.1-0.6,0-1,0.6-1.2C185.7,203.9,185.3,204.1,184.7,204.4z" />
<path
   id="path162"
   class="st7"
   d="M233.4,129.4c0.1,0.9-0.4,0.9-1,0.9L233.4,129.4z" />
<path
   id="path164"
   class="st7"
   d="M195.4,198.6c0-0.9,0.5-0.9,1.1-0.6L195.4,198.6z" />
<path
   id="path166"
   class="st7"
   d="M186.8,193.2c0.2,0.5,0,0.6-0.5,0.6L186.8,193.2z" />
<path
   id="path168"
   class="st7"
   d="M245.9,117.9c0,0.4-0.2,0.6-0.6,0.6h-0.1L245.9,117.9z" />
<path
   id="path170"
   class="st7"
   d="M245.2,118.5c0.1,0.3-0.2,0.6-0.4,0.6c-0.1,0-0.1,0-0.2,0L245.2,118.5z" />
<path
   id="path172"
   class="st7"
   d="M244.5,119.1c0.1,0.4-0.2,0.7-0.6,0.6L244.5,119.1z" />
<path
   id="path174"
   class="st7"
   d="M242.3,120.9l-0.7,0.7L242.3,120.9z" />
<path
   id="path176"
   class="st7"
   d="M241.6,121.6l-0.7,0.7L241.6,121.6z" />
<path
   id="path178"
   class="st7"
   d="M241,122.2l-0.7,0.7L241,122.2z" />
<path
   id="path180"
   class="st7"
   d="M239.1,124c0,0.4-0.2,0.6-0.6,0.6h-0.1L239.1,124z" />
<path
   id="path182"
   class="st7"
   d="M238.5,124.6c0.1,0.3-0.2,0.6-0.5,0.6c-0.1,0-0.1,0-0.1,0L238.5,124.6z" />
<path
   id="path184"
   class="st7"
   d="M237.8,125.2c0,0.4-0.2,0.7-0.7,0.6L237.8,125.2z" />
<path
   id="path186"
   class="st7"
   d="M237.2,125.8c0.1,0.4-0.1,0.7-0.6,0.6L237.2,125.8z" />
<path
   id="path188"
   class="st7"
   d="M236.6,126.4c0.1,0.4-0.1,0.7-0.6,0.6L236.6,126.4z" />
<path
   id="path190"
   class="st7"
   d="M235.8,127c0.1,0.5-0.1,0.7-0.6,0.6L235.8,127z" />
<path
   id="path192"
   class="st7"
   d="M235.2,127.6c0.1,0.5-0.1,0.7-0.6,0.6C234.9,128,235.1,127.8,235.2,127.6z" />
<path
   id="path194"
   class="st7"
   d="M234.6,128.2c0.1,0.5-0.1,0.7-0.6,0.6L234.6,128.2z" />
<path
   id="path196"
   class="st7"
   d="M185.3,203.2l0.6-0.6C186.3,203.3,185.9,203.3,185.3,203.2z" />
<path
   id="path198"
   class="st7"
   d="M234,128.8c0.1,0.5-0.1,0.7-0.5,0.6L234,128.8z" />
<path
   id="path200"
   class="st7"
   d="M184.1,205.1c0-0.4,0.2-0.7,0.6-0.6C184.7,204.7,184.5,205.1,184.1,205.1z" />
<path
   id="path202"
   class="st7"
   d="M183.5,206c0.1-0.4,0.1-0.9,0.6-0.9L183.5,206z" />
<path
   id="path204"
   class="st7"
   d="M229.8,133.1c0.1,0.5-0.1,0.7-0.6,0.6C229.4,133.5,229.6,133.3,229.8,133.1z" />
<path
   id="path206"
   class="st7"
   d="M229.1,133.7c0.1,0.5-0.1,0.7-0.6,0.6C228.8,134.1,229,133.9,229.1,133.7z" />
<path
   id="path208"
   class="st7"
   d="M228.5,134.3c0.1,0.5-0.1,0.7-0.6,0.6L228.5,134.3z" />
<path
   id="path210"
   class="st7"
   d="M186.3,193.8c0.1,0.5-0.1,0.6-0.5,0.6L186.3,193.8z" />
<path
   id="path212"
   class="st7"
   d="M223.3,178.2l0.7-0.7L223.3,178.2z" />
<path
   id="path214"
   class="st7"
   d="M227.9,135c0.1,0.5-0.1,0.7-0.6,0.6L227.9,135z" />
<path
   id="path216"
   class="st7"
   d="M227.4,135.6c0.1,0.4-0.1,0.7-0.6,0.6C226.9,136,227.1,135.8,227.4,135.6z" />
<path
   id="path218"
   class="st7"
   d="M226.8,136.2c0,0.4-0.2,0.7-0.6,0.6C226.4,136.6,226.6,136.4,226.8,136.2z" />
<path
   id="path220"
   class="st7"
   d="M226.2,136.9c0.1,0.3-0.1,0.6-0.4,0.7c-0.1,0-0.1,0-0.2,0C225.8,137.3,226,137,226.2,136.9z" />
<path
   id="path222"
   class="st7"
   d="M251.1,137.8c-0.2-0.4,0.1-0.6,0.4-0.7C251.4,137.3,251.3,137.6,251.1,137.8z" />
<path
   id="path224"
   class="st7"
   d="M225.6,137.5c0,0.4-0.2,0.7-0.6,0.7L225.6,137.5z" />
<path
   id="path226"
   class="st7"
   d="M225,138.1l-0.6,0.7L225,138.1z" />
<path
   id="path228"
   class="st7"
   d="M216,185.5l0.7-0.6L216,185.5z" />
<path
   id="path230"
   class="st7"
   d="M215.4,186.1l0.7-0.6L215.4,186.1z" />
<path
   id="path232"
   class="st7"
   d="M224.4,138.8c-0.2,0.2-0.4,0.5-0.6,0.7C224.1,139.2,224.2,139,224.4,138.8z" />
<path
   id="path234"
   class="st7"
   d="M223.9,139.4l-0.6,0.7L223.9,139.4z" />
<path
   id="path236"
   class="st7"
   d="M222.4,141.1c0.1,0.5-0.1,0.7-0.6,0.6L222.4,141.1z" />
<path
   id="path238"
   class="st7"
   d="M221.9,141.8c0.1,0.4-0.1,0.7-0.6,0.7L221.9,141.8z" />
<path
   id="path240"
   class="st7"
   d="M219.9,144.1c0.2,0.5,0,0.6-0.5,0.6L219.9,144.1z" />
<path
   id="path242"
   class="st7"
   d="M219.4,144.8c0.1,0.4-0.1,0.7-0.6,0.7L219.4,144.8z" />
<path
   id="path244"
   class="st7"
   d="M218.8,145.4l-0.6,0.7L218.8,145.4z" />
<path
   id="path246"
   class="st7"
   d="M221.4,142.4c0,0.4-0.2,0.7-0.6,0.7C220.9,142.9,221.1,142.6,221.4,142.4z" />
<path
   id="path248"
   class="st7"
   d="M251.5,113.6c-0.2,0.4-0.4,0.6-0.9,0.5C250.8,113.7,251.1,113.5,251.5,113.6z" />
<g
   id="g129">
	<path
   id="path250"
   class="st9"
   d="M134.5,181.1c2.2-2.3,3.4-5.3,5-8l1.2,0.2c-1.1,5.4-3.9,10.3-4.9,15.7c-0.2,1.2-0.9,2.4-0.6,3.7   c-1.1,2.1-1.1,4.5-1.8,6.7c-0.7,2.2-0.8,4.7-1,7c-0.3,2.5-0.9,5.1,0.4,7.7c0,3.1,0.7,6.2,1.9,9.1c0.2,0.6,0.4,1.2,0.7,1.8   c0.5,2.8,2.3,4.8,4.2,6.7c1.8,2.6,4.4,4.5,7.4,5.5c2.5,1.4,5.1,2.4,8,1.2h3.7c7.1-1.8,12.4-5.9,15.3-12.8c1-0.6,0.2-1.9,1.2-2.5   c1.1-2.8,2.4-5.5,1.8-8.5v-3.7c0.5-3.1-0.8-6.1-0.7-9.2c-0.3-0.7-1.2-0.9-1.2-1.8c0.1-2.1,0.1-4.3-1.2-6.1c0.2-1.5-0.2-2.9-0.6-4.3   c-0.2-5.3-2.2-10.2-3.7-15.2c0.3-0.7,1-0.8,1.7-0.8c0.4,1-0.1,2.2,0.6,3.2c2.6,4,3.4,8.6,4.9,13.1c0.5,1.3-0.4,2.5,0.2,3.8   c3.5,6.6,3.7,13.8,3.9,21.1c0.1,5-1.8,9.5-3.3,14.1l0,0c-1.1,0.5-1.4,1.3-1.2,2.5l0,0c-0.9-0.1-1.2,0.5-1.2,1.2l0,0   c-0.5,0.2-0.8,0.7-0.6,1.2l0,0l0,0c-2.1,0.8-3.9,2.3-4.9,4.3l0,0c-1.5,0.3-2.8,1.2-3.7,2.5l0,0c-0.8-0.1-1.7,0.1-2.3,0.6   c-7.5,3.3-14.9,3-22-1.3c-0.7-0.5-1.5-0.7-2.3-0.6l-2.8-2.8c0.2-0.6-0.1-1.2-0.7-1.5l0,0c-0.4-1.8-1.5-3.3-3.1-4.3l0,0   c0-1.5-0.4-2.9-1.8-3.7l0,0c0.1-1-0.1-2-0.5-2.9c-3.9-12.4-3.4-24.6,1.8-36.5c0.6-1.3,1.3-2.5,1.2-4l0,0   C135.1,183.4,134.4,182,134.5,181.1z" />
</g>
<path
   id="path252"
   class="st6"
   d="M177.4,228.9c1.5-4.6,3.4-9.1,3.3-14.1c-0.2-7.2-0.4-14.5-3.9-21.1c-0.7-1.3,0.2-2.5-0.2-3.8  c-1.5-4.4-2.3-9.1-4.9-13.1c-0.7-1-0.2-2.2-0.6-3.2c-1.8-5.2-3.2-10.5-2.9-16.1c0.1-2.6,1-5.2,2.6-7.4c0.6-0.8,1.3-1.7,2.5-1.4  c1.2,0.3,1.8,1.4,1.7,2.6c-0.3,3.2,0.5,6.4,1.3,9.5c-2.5-1.7-1.8-4.3-1.9-6.7c-0.1-1.5,0.5-3.7-1.2-4c-1.7-0.4-2.6,1.8-3.1,3.3  c-1.5,5.1-1,10.3,0.5,15.3c3.2,10.5,7.3,20.6,9.6,31.4c1.7,8.1,2.5,16.2-0.3,24.3C179.3,226.1,179.1,228,177.4,228.9L177.4,228.9z" />
<path
   id="path254"
   class="st6"
   d="M182.9,115c0.9-2.7,3.4-3.2,5.6-4c4.9-1.8,9.6-1,14,1.6c1,0.6,2.3,1.2,1.9,2.8  c-6.8-5.5-13.1-5.7-20.3-0.8C183.6,114.7,183.3,114.9,182.9,115L182.9,115z" />
<path
   id="path256"
   class="st6"
   d="M200,163.9c-3.2,3.1-8.8,3.7-11.5,0.9c-1.8-1.8-3.7-2.1-6-2c-2.3,0.1-4.8,0.6-6.3-1.9  c2.9,0.9,5.9,1.7,9.1,0.9c1-0.1,2.1,0.3,2.7,1.1c3,3.7,6.6,3.2,10.4,1.5C198.9,164.1,199.4,163.7,200,163.9L200,163.9z" />
<path
   id="path258"
   class="st6"
   d="M214.7,130.3c3.2,3.2,2.8,9.3-1.1,12.1c-2.5,1.8-5.6,2.9-8.7,3.2c0.5-1.1,1.6-1.2,2.5-1.5  C215.8,141.2,217.1,138.6,214.7,130.3L214.7,130.3z" />
<path
   id="path260"
   class="st6"
   d="M204.9,145.6c-0.4,3.9,0.7,7.8,0,11.8c-0.6,3-1.8,5.5-5,6.6c-0.2-0.9,0.6-1.2,1.1-1.7  c3.1-2.8,3.5-6.4,3-10.3C203.8,149.8,202.8,147.5,204.9,145.6z" />
<path
   id="path262"
   class="st6"
   d="M205.2,116.2c3.1,0.5,3.9,3.4,3.8,5.4c-0.1,3.9,0.9,6.2,4.7,7.4c0.2,0.1,0.3,0.5,0.5,0.7  c-1.4,0.1-2.4-1-3.7-1.2c-2.1-0.4-2.6-1.5-2.1-3.6C209,121.5,207.1,118.8,205.2,116.2L205.2,116.2z" />
<path
   id="path284"
   class="st6"
   d="M176.8,125.5c1.3-3.6,1.9-7.5,5.5-9.8C180.1,118.7,179.5,122.6,176.8,125.5z" />
<g
   id="hair_inner_root_sheath">
	<g
   id="g282"
   transform="matrix(0.81692298,0,0,0.81692298,143.85237,15.089689)">
		<path
   id="path264"
   class="st10"
   d="M-13.7,243.7c-1.6-3-0.8-6.4-0.4-9.4c0.4-2.8,0.3-5.8,1.3-8.6c1.9-0.2,4,0.1,5.8,0.8v1.5    c-0.8,0.7-0.6,1.6-0.6,2.4c-0.2,3.2-0.7,6.4-0.6,9.6c0.1,1.3,0.7,2.5-0.4,3.7L-13.7,243.7z" />
		<path
   id="path266"
   class="st10"
   d="M3.5,272.2c-3.6-1.3-6.7-3.6-9-6.8c0.4-2.5,2.5-3,4.4-3.8c2.1,2,4.2,4,6.8,5.2    C5.6,268.9,6.5,271.4,3.5,272.2z" />
		<path
   id="path268"
   class="st10"
   d="M36.5,219l-5.3,0.8c-0.7-1.7-1.9-3.3-0.6-5.3l5.2-0.8C36.2,215.4,36.8,217.2,36.5,219z" />
		<path
   id="path270"
   class="st10"
   d="M33.3,227.2l4.7-0.7c-0.1,1.1,1,1.4,1.4,2.3c-0.8,3-2.9,3.8-5.7,3.7    C32.6,230.8,32.3,229,33.3,227.2z" />
		<path
   id="path272"
   class="st10"
   d="M40.2,244.5c-1.8,1-4,1-5.9,0c0.1-1.5,0.1-3,0.1-4.5h5.7L40.2,244.5z" />
		<path
   id="path274"
   class="st10"
   d="M-5.2,218.3c-1.8-0.2-3.8,0.3-5.5-0.8c-0.3-1.6,0.4-3,0.8-4.5c2.6,0,5.6-0.4,5.2,3.7    C-4.9,217.2-5,217.8-5.2,218.3z" />
		<path
   id="path276"
   class="st10"
   d="M-5.4,255.6c-1.9,0.2-3.2,1.8-5.2,1.5c-0.2-0.8-0.5-1.5-0.8-2.3c0.4-3.4,1.5-4,5.2-3    C-5.5,253-5.2,254.4-5.4,255.6z" />
		<path
   id="path278"
   class="st10"
   d="M33.4,251.9c1.7,0.8,4.3,0.2,4.6,3c-1.2,0.7-0.3,2.4-1.5,3.1c-2.4-0.2-4.6-0.7-4.5-3.8    C32,253.2,32.5,252.3,33.4,251.9z" />
		<path
   id="path280"
   class="st10"
   d="M13.4,273.7c0-1.7,0-3.5,0-5.3c0.2-0.1,0.4-0.1,0.6-0.1c4.6,0.2,5.2,1,3.9,5.3L13.4,273.7z" />
	</g>
	<g
   id="g310"
   transform="matrix(0.81692298,0,0,0.81692298,143.85237,15.089689)">
		<path
   id="path286"
   class="st11"
   d="M-1.6,103.2L-1.6,103.2c-1.8,0.1-3.6,0.6-5.4-0.1l0.9-0.3L-1.6,103.2z" />
		<path
   id="path288"
   class="st11"
   d="M36.5,258c-3.6,8.4-10.1,13.4-18.8,15.7c1.4-4.2,0.8-5-3.9-5.3c6.5-1.2,12.3-5,16-10.5    c0.9-1.2,0.9-2.8,2-3.8C32,257.4,34.1,257.8,36.5,258z" />
		<path
   id="path290"
   class="st11"
   d="M-9.9,213c1.3-6.7,4.6-12.7,6-19.3c4.5-0.3,5.1,0.6,4,4.7c-1.7,6.1-3.2,12.2-4.8,18.3    C-4.3,212.6-7.3,213-9.9,213z" />
		<path
   id="path292"
   class="st11"
   d="M31.3,195.1c1.8,6.2,4.2,12.1,4.5,18.6l-5.2,0.8c-2.3-2.9-1.5-6.6-2.3-9.9    c-0.4-1.7-0.3-3.6-0.8-5.5C26.9,196.3,27.9,194.5,31.3,195.1z" />
		<path
   id="path294"
   class="st11"
   d="M39.5,228.8c-0.1,3.7,1.4,7.4,0.8,11.2h-5.7c-0.4-2.5-1.4-4.9-0.8-7.5    C36.5,232.6,38.6,231.8,39.5,228.8z" />
		<path
   id="path296"
   class="st11"
   d="M-13.7,243.7h5.1c2.1,2.4,1.2,5.6,2.4,8.3c-3.7-1.1-4.8-0.4-5.2,3    C-12.9,251.4-13.7,247.6-13.7,243.7z" />
		<path
   id="path298"
   class="st11"
   d="M-1,261.7c-1.9,0.7-4,1.3-4.4,3.8c-2.3-2.4-4.6-4.8-5.2-8.3c1.9,0.3,3.4-1.4,5.2-1.5    C-2.8,256.9-3,260.1-1,261.7z" />
		<path
   id="path300"
   class="st11"
   d="M3.5,272.2c2.9-0.8,2-3.3,2.2-5.3c2.4,1.1,5,1,7.5,1.6c0,1.7,0,3.5,0,5.3    C9.8,275.1,6.6,273.9,3.5,272.2z" />
		<path
   id="path302"
   class="st11"
   d="M40.2,244.5c0.7,3.8-0.8,7.1-2.2,10.4c-0.4-2.8-2.9-2.3-4.6-3c-0.1-2.5,0.4-4.9,1-7.4    C36.2,245.5,38.4,245.5,40.2,244.5z" />
		<path
   id="path304"
   class="st11"
   d="M36.5,219c1.6,2.3,1.6,4.9,1.5,7.5l-4.7,0.7c-2.2-2-2-4.8-2.1-7.4L36.5,219z" />
		<path
   id="path306"
   class="st11"
   d="M-7,226.5c-1.9-0.7-3.8-0.9-5.8-0.8c0.9-2.7,0.9-5.7,2.2-8.3c1.7,1.1,3.6,0.7,5.5,0.8    C-6.2,220.9-5.7,223.9-7,226.5z" />
		<path
   id="path308"
   class="st11"
   d="M-7.6,230.4c-0.1-0.8-0.3-1.8,0.6-2.4C-6.9,228.9-6.7,229.8-7.6,230.4z" />
	</g>
</g>
<path
   id="path312"
   class="st6"
   d="M182.3,115.7c0-0.5,0.2-0.7,0.6-0.6C182.9,115.4,182.6,115.7,182.3,115.7z" />
<path
   id="path314"
   class="st6"
   d="M214.1,129.7c0.4,0,0.6,0.2,0.6,0.6C214.1,130.5,214,130.2,214.1,129.7z" />
<path
   id="path316"
   class="st6"
   d="M133.3,183.5c0.2,1.5-0.6,2.8-1.2,4c-5.3,11.9-5.7,24.1-1.8,36.5c0.4,0.9,0.6,2,0.5,2.9  c-2.6-3.6-2.9-7.9-3.6-12c-1.5-10.5,0.4-21.2,5.2-30.6C132.7,184.1,133,183.9,133.3,183.5L133.3,183.5z" />
<path
   id="path318"
   class="st6"
   d="M139.1,239.2c0.8-0.1,1.7,0.1,2.3,0.6c7.1,4.3,14.5,4.6,22,1.3c0.7-0.4,1.5-0.6,2.3-0.6  c-4.7,3.9-10.4,4.2-16,3.4C145.9,243.5,142.1,242.2,139.1,239.2z" />
<path
   id="path320"
   class="st6"
   d="M169.4,238.1c1-2,2.8-3.5,4.9-4.3C173.3,235.9,171.9,237.6,169.4,238.1L169.4,238.1z" />
<path
   id="path322"
   class="st6"
   d="M132.6,230.7c1.5,1,2.6,2.5,3.1,4.3C133.9,234.2,133.1,232.6,132.6,230.7z" />
<path
   id="path324"
   class="st6"
   d="M165.7,240.5c0.9-1.3,2.2-2.1,3.7-2.5C168.8,239.8,167.5,240.5,165.7,240.5z" />
<path
   id="path326"
   class="st6"
   d="M130.8,227c1.5,0.8,1.8,2.1,1.8,3.7C131.5,229.9,130.7,228.5,130.8,227z" />
<path
   id="path328"
   class="st6"
   d="M134.5,181.1c-0.1,1,0.6,2.3-1.2,2.5C133.3,182.6,133.7,181.6,134.5,181.1z" />
<path
   id="path330"
   class="st6"
   d="M176.1,231.3c-0.1-1.1,0.1-2,1.2-2.5C177.6,229.9,177.1,230.9,176.1,231.3z" />
<path
   id="path332"
   class="st6"
   d="M174.9,232.6c0-0.8,0.4-1.3,1.2-1.2C176.1,232.1,175.9,232.7,174.9,232.6z" />
<path
   id="path334"
   class="st6"
   d="M174.3,233.8c-0.2-0.5,0.1-1,0.6-1.2l0,0c0.2,0.5-0.1,1-0.5,1.2  C174.4,233.8,174.4,233.8,174.3,233.8z" />
<path
   id="path336"
   class="st6"
   d="M135.7,235c0.6,0.2,0.9,0.9,0.7,1.5C136,236.1,135.5,235.7,135.7,235z" />
<path
   id="sebaceous_gland"
   class="st0"
   d="M214.6,130c-0.6,0.2-0.7-0.1-0.6-0.6c-1.4,0.1-2.4-1-3.7-1.2c-2.1-0.3-2.6-1.4-2.1-3.6  c0.7-3.4-1.2-6.1-3.1-8.6l-0.9-0.9c-6.9-5.5-13.1-5.7-20.3-0.8c-0.4,0.2-0.7,0.4-1.1,0.5c0,0.4-0.2,0.6-0.6,0.6  c-2.1,3.1-2.8,7-5.5,9.8c-0.2,1.3-0.9,1.8-2,1.8c0.4,7.3,0,14.5-1.2,21.7c0.9,0.5,1.4,1.5,1.2,2.5c-0.3,3.3,0.5,6.4,1.3,9.5  c2.9,0.9,5.9,1.7,9.1,0.9c1-0.1,2.1,0.3,2.7,1.1c3,3.7,6.6,3.2,10.4,1.5c0.6-0.2,1-0.6,1.7-0.4c-0.2-0.9,0.6-1.2,1.1-1.7  c3.1-2.9,3.6-6.4,3-10.3c-0.3-2.2-1.3-4.6,0.9-6.5c0.5-1,1.6-1.2,2.5-1.5C215.7,140.9,217.1,138.3,214.6,130z" />
<path
   id="path1305"
   class="st12"
   d="M234.3,164.6l41.5,0.3" />
<text
   transform="matrix(1 0 0 1 275.8076 164.8781)"
   class="st13 st14"
   id="text178">Arrector Muscle of Hair</text>
<path
   id="path4800"
   class="st12"
   d="M206.3,116.1l56.8-42.9" />
<text
   transform="matrix(1 0 0 1 263.0732 73.2721)"
   class="st13 st15"
   id="text181">Sebaceous Gland</text>
<text
   transform="matrix(1 0 0 1 263.0732 88.9474)"
   class="st13 st14"
   id="text183">sebum secreting cell</text>
<path
   id="path15853"
   sodipodi:nodetypes="cc"
   class="st12"
   d="M126,195.3l-27.4-42.2" />
<text
   transform="matrix(1 0 0 1 6.0737 134.4381)"
   class="st13 st15"
   id="text186">Hair Follicle</text>
<text
   transform="matrix(1 0 0 1 6.0737 150.1134)"
   class="st13 st14"
   id="text188">keratinocyte stem cell</text>
<path
   id="path1033"
   sodipodi:nodetypes="cc"
   class="st12"
   d="M176.8,211.1l89.9,0.2" />
<text
   transform="translate(266.7026,211.3019)"
   class="st13 st14"
   id="text191">Hair Inner Root Sheath</text>
<path
   id="path8266"
   class="st12"
   d="M177.4,228.9l89.4,0.1" />
<text
   transform="matrix(1 0 0 1 266.8584 229.0929)"
   class="st13 st14"
   id="text194">Outer Root Sheath</text>
</svg>
